<svg width="21" height="21" viewBox="0 0 21 21" fill="none" xmlns="http://www.w3.org/2000/svg">
<path d="M10.2131 20.2501C9.62706 20.2501 9.05035 20.0546 8.59457 19.6636L7.12488 18.4068C6.97605 18.2764 6.60398 18.1461 6.40865 18.1461H4.78083C3.40417 18.1461 2.28796 17.0289 2.28796 15.651V14.059C2.28796 13.8635 2.15773 13.4911 2.03681 13.3515L0.771767 11.8619C0.00902052 10.9588 0.00902052 9.54373 0.771767 8.63136L2.03681 7.14178C2.15773 7.00213 2.28796 6.62973 2.28796 6.43423V4.85154C2.28796 3.47368 3.40417 2.35649 4.78083 2.35649H6.39004C6.58538 2.35649 6.94815 2.21684 7.10628 2.0865L8.57596 0.829664C9.48754 0.0569416 10.9107 0.0569416 11.8223 0.829664L13.292 2.0865C13.4408 2.21684 13.8222 2.34718 14.0175 2.34718H15.5988C16.9755 2.34718 18.0917 3.46437 18.0917 4.84223V6.42492C18.0917 6.62042 18.2312 6.98351 18.3614 7.14178L19.6172 8.61274C20.3985 9.53442 20.3892 10.9588 19.6172 11.8619L18.3614 13.3329C18.2312 13.4911 18.101 13.8542 18.101 14.0497V15.6324C18.101 17.0103 16.9848 18.1275 15.6081 18.1275H14.0268C13.8315 18.1275 13.4687 18.2671 13.3013 18.3975L11.8316 19.6543C11.3758 20.0546 10.7898 20.2501 10.2131 20.2501ZM4.78083 3.75297C4.17622 3.75297 3.68322 4.2464 3.68322 4.85154V6.43423C3.68322 6.96489 3.44138 7.6352 3.09721 8.04484L1.83217 9.53442C1.51591 9.91613 1.51591 10.5864 1.83217 10.9588L3.08791 12.4391C3.42277 12.8208 3.67392 13.5191 3.67392 14.0497V15.6417C3.67392 16.2469 4.16692 16.7403 4.77153 16.7403H6.39004C6.91094 16.7403 7.59927 16.9917 8.00855 17.3361L9.48754 18.6023C9.86891 18.9281 10.5386 18.9281 10.92 18.6023L12.3897 17.3454C12.8083 16.9917 13.4873 16.7496 14.0082 16.7496H15.5895C16.1941 16.7496 16.6871 16.2562 16.6871 15.651V14.0683C16.6871 13.547 16.9383 12.8674 17.2824 12.4484L18.5475 10.9681C18.873 10.5864 18.873 9.91613 18.5475 9.53442L17.2917 8.06346C16.9383 7.64451 16.6964 6.96489 16.6964 6.44353V4.85154C16.6964 4.2464 16.2034 3.75297 15.5988 3.75297H14.0175C13.4873 3.75297 12.799 3.50161 12.3897 3.15714L10.9107 1.89099C10.5293 1.56515 9.86891 1.56515 9.47823 1.89099L8.01785 3.15714C7.59927 3.50161 6.92024 3.75297 6.39004 3.75297H4.78083Z" fill="#24221E"/>
<path d="M10.2039 14.7853C9.69226 14.7853 9.27368 14.3663 9.27368 13.8543C9.27368 13.3422 9.68296 12.9233 10.2039 12.9233C10.7155 12.9233 11.134 13.3422 11.134 13.8543C11.134 14.3663 10.7248 14.7853 10.2039 14.7853Z" fill="#24221E"/>
<path d="M10.2037 11.8526C9.82236 11.8526 9.5061 11.5361 9.5061 11.1544V6.64841C9.5061 6.2667 9.82236 5.95016 10.2037 5.95016C10.5851 5.95016 10.9014 6.2667 10.9014 6.64841V11.1451C10.9014 11.5361 10.5944 11.8526 10.2037 11.8526Z" fill="#24221E"/>
</svg>
