<svg width="25" height="24" viewBox="0 0 25 24" fill="none" xmlns="http://www.w3.org/2000/svg">
<g clip-path="url(#clip0_65_3245)">
<path d="M20.0747 7.87512H17.0747C16.7763 7.87512 16.4902 7.99365 16.2792 8.20463C16.0682 8.41561 15.9497 8.70175 15.9497 9.00012V10.5001C15.9497 10.5996 15.9892 10.695 16.0595 10.7653C16.1299 10.8356 16.2253 10.8751 16.3247 10.8751H20.8247C20.9242 10.8751 21.0195 10.8356 21.0899 10.7653C21.1602 10.695 21.1997 10.5996 21.1997 10.5001V9.00012C21.1997 8.70175 21.0812 8.41561 20.8702 8.20463C20.6592 7.99365 20.3731 7.87512 20.0747 7.87512ZM20.4497 10.1251H16.6997V9.00012C16.6997 8.90067 16.7392 8.80528 16.8095 8.73496C16.8799 8.66463 16.9753 8.62512 17.0747 8.62512H20.0747C20.1742 8.62512 20.2695 8.66463 20.3399 8.73496C20.4102 8.80528 20.4497 8.90067 20.4497 9.00012V10.1251Z" fill="#24221E"/>
<path d="M20.0747 6.37512V5.62512C20.0747 5.2273 19.9167 4.84577 19.6354 4.56446C19.3541 4.28316 18.9725 4.12512 18.5747 4.12512C18.1769 4.12512 17.7954 4.28316 17.514 4.56446C17.2327 4.84577 17.0747 5.2273 17.0747 5.62512V6.37512C17.0747 6.77295 17.2327 7.15448 17.514 7.43578C17.7954 7.71709 18.1769 7.87512 18.5747 7.87512C18.9725 7.87512 19.3541 7.71709 19.6354 7.43578C19.9167 7.15448 20.0747 6.77295 20.0747 6.37512ZM19.3247 6.37512C19.3247 6.57403 19.2457 6.7648 19.105 6.90545C18.9644 7.0461 18.7736 7.12512 18.5747 7.12512C18.3758 7.12512 18.185 7.0461 18.0444 6.90545C17.9037 6.7648 17.8247 6.57403 17.8247 6.37512V5.62512C17.8247 5.42621 17.9037 5.23544 18.0444 5.09479C18.185 4.95414 18.3758 4.87512 18.5747 4.87512C18.7736 4.87512 18.9644 4.95414 19.105 5.09479C19.2457 5.23544 19.3247 5.42621 19.3247 5.62512V6.37512Z" fill="#24221E"/>
<path d="M23.8247 7.87512C23.8247 6.48274 23.2716 5.14738 22.287 4.16281C21.3025 3.17825 19.9671 2.62512 18.5747 2.62512C17.1823 2.62512 15.847 3.17825 14.8624 4.16281C13.8778 5.14738 13.3247 6.48274 13.3247 7.87512H0.949707C0.850251 7.87512 0.754868 7.91463 0.684542 7.98496C0.614216 8.05528 0.574707 8.15067 0.574707 8.25012V19.1251C0.575303 19.7217 0.812547 20.2936 1.23437 20.7155C1.6562 21.1373 2.22815 21.3745 2.82471 21.3751H19.3247C19.9213 21.3745 20.4932 21.1373 20.915 20.7155C21.3369 20.2936 21.5741 19.7217 21.5747 19.1251V12.1775C22.2687 11.6948 22.8358 11.0515 23.2275 10.3023C23.6193 9.55322 23.8242 8.7205 23.8247 7.87512ZM19.3247 20.6251H2.82471C2.42688 20.6251 2.04535 20.4671 1.76405 20.1858C1.48274 19.9045 1.32471 19.5229 1.32471 19.1251V18.3751H20.8247V19.1251C20.8247 19.5229 20.6667 19.9045 20.3854 20.1858C20.1041 20.4671 19.7225 20.6251 19.3247 20.6251ZM20.8247 17.6251H1.32471V8.62512H13.3847C13.4995 9.43926 13.8047 10.2149 14.2753 10.889C14.746 11.5631 15.369 12.1168 16.0937 12.5051C16.8185 12.8934 17.6245 13.1054 18.4465 13.1239C19.2685 13.1423 20.0833 12.9667 20.8247 12.6114V17.6251ZM18.5747 12.3751C17.6847 12.3751 16.8147 12.1112 16.0746 11.6167C15.3346 11.1223 14.7578 10.4195 14.4172 9.5972C14.0767 8.77493 13.9875 7.87013 14.1612 6.99722C14.3348 6.1243 14.7634 5.32248 15.3927 4.69314C16.0221 4.06381 16.8239 3.63522 17.6968 3.46159C18.5697 3.28795 19.4745 3.37707 20.2968 3.71766C21.119 4.05826 21.8219 4.63504 22.3163 5.37506C22.8108 6.11508 23.0747 6.98511 23.0747 7.87512C23.0734 9.0682 22.5989 10.212 21.7553 11.0557C20.9116 11.8993 19.7678 12.3738 18.5747 12.3751Z" fill="#24221E"/>
<path d="M4.69971 14.2501C4.60025 14.2501 4.50487 14.2106 4.43454 14.1403C4.36422 14.07 4.32471 13.9746 4.32471 13.8751H3.57471C3.57567 14.107 3.64824 14.3329 3.78249 14.5219C3.91674 14.7109 4.10612 14.8538 4.32471 14.9311V15.3751H5.07471V14.9311C5.32471 14.8431 5.53549 14.6694 5.6697 14.4408C5.80391 14.2122 5.85289 13.9435 5.80798 13.6823C5.76306 13.4211 5.62714 13.1842 5.4243 13.0136C5.22145 12.8429 4.96477 12.7496 4.69971 12.7501C4.62554 12.7501 4.55304 12.7281 4.49137 12.6869C4.4297 12.6457 4.38164 12.5872 4.35325 12.5186C4.32487 12.4501 4.31744 12.3747 4.33191 12.302C4.34638 12.2292 4.3821 12.1624 4.43454 12.11C4.48699 12.0575 4.55381 12.0218 4.62655 12.0073C4.69929 11.9929 4.77469 12.0003 4.84321 12.0287C4.91174 12.0571 4.9703 12.1051 5.01151 12.1668C5.05271 12.2285 5.07471 12.301 5.07471 12.3751H5.82471C5.82375 12.1433 5.75118 11.9174 5.61692 11.7284C5.48267 11.5393 5.2933 11.3964 5.07471 11.3191V10.8751H4.32471V11.3191C4.0747 11.4072 3.86393 11.5809 3.72972 11.8094C3.59551 12.038 3.54652 12.3067 3.59144 12.5679C3.63635 12.8292 3.77227 13.0661 3.97512 13.2367C4.17796 13.4073 4.43465 13.5006 4.69971 13.5001C4.79916 13.5001 4.89455 13.5396 4.96487 13.61C5.0352 13.6803 5.07471 13.7757 5.07471 13.8751C5.07471 13.9746 5.0352 14.07 4.96487 14.1403C4.89455 14.2106 4.79916 14.2501 4.69971 14.2501ZM7.69971 14.2501C7.60025 14.2501 7.50487 14.2106 7.43454 14.1403C7.36422 14.07 7.32471 13.9746 7.32471 13.8751H6.57471C6.57567 14.107 6.64824 14.3329 6.78249 14.5219C6.91674 14.7109 7.10612 14.8538 7.32471 14.9311V15.3751H8.07471V14.9311C8.32471 14.8431 8.53549 14.6694 8.6697 14.4408C8.80391 14.2122 8.85289 13.9435 8.80798 13.6823C8.76306 13.4211 8.62714 13.1842 8.4243 13.0136C8.22145 12.8429 7.96477 12.7496 7.69971 12.7501C7.62554 12.7501 7.55304 12.7281 7.49137 12.6869C7.4297 12.6457 7.38163 12.5872 7.35325 12.5186C7.32487 12.4501 7.31744 12.3747 7.33191 12.302C7.34638 12.2292 7.3821 12.1624 7.43454 12.11C7.48699 12.0575 7.5538 12.0218 7.62655 12.0073C7.69929 11.9929 7.77469 12.0003 7.84321 12.0287C7.91174 12.0571 7.9703 12.1051 8.01151 12.1668C8.05271 12.2285 8.07471 12.301 8.07471 12.3751H8.82471C8.82375 12.1433 8.75118 11.9174 8.61692 11.7284C8.48267 11.5393 8.2933 11.3964 8.07471 11.3191V10.8751H7.32471V11.3191C7.0747 11.4072 6.86393 11.5809 6.72972 11.8094C6.59551 12.038 6.54652 12.3067 6.59144 12.5679C6.63635 12.8292 6.77227 13.0661 6.97512 13.2367C7.17796 13.4073 7.43465 13.5006 7.69971 13.5001C7.79916 13.5001 7.89455 13.5396 7.96487 13.61C8.0352 13.6803 8.07471 13.7757 8.07471 13.8751C8.07471 13.9746 8.0352 14.07 7.96487 14.1403C7.89455 14.2106 7.79916 14.2501 7.69971 14.2501ZM10.6997 14.2501C10.6003 14.2501 10.5049 14.2106 10.4345 14.1403C10.3642 14.07 10.3247 13.9746 10.3247 13.8751H9.57471C9.57567 14.107 9.64824 14.3329 9.78249 14.5219C9.91674 14.7109 10.1061 14.8538 10.3247 14.9311V15.3751H11.0747V14.9311C11.3247 14.8431 11.5355 14.6694 11.6697 14.4408C11.8039 14.2122 11.8529 13.9435 11.808 13.6823C11.7631 13.4211 11.6271 13.1842 11.4243 13.0136C11.2215 12.8429 10.9648 12.7496 10.6997 12.7501C10.6255 12.7501 10.553 12.7281 10.4914 12.6869C10.4297 12.6457 10.3816 12.5872 10.3533 12.5186C10.3249 12.4501 10.3174 12.3747 10.3319 12.302C10.3464 12.2292 10.3821 12.1624 10.4345 12.11C10.487 12.0575 10.5538 12.0218 10.6265 12.0073C10.6993 11.9929 10.7747 12.0003 10.8432 12.0287C10.9117 12.0571 10.9703 12.1051 11.0115 12.1668C11.0527 12.2285 11.0747 12.301 11.0747 12.3751H11.8247C11.8237 12.1433 11.7512 11.9174 11.6169 11.7284C11.4827 11.5393 11.2933 11.3964 11.0747 11.3191V10.8751H10.3247V11.3191C10.0747 11.4072 9.86393 11.5809 9.72972 11.8094C9.59551 12.038 9.54652 12.3067 9.59144 12.5679C9.63635 12.8292 9.77227 13.0661 9.97512 13.2367C10.178 13.4073 10.4346 13.5006 10.6997 13.5001C10.7992 13.5001 10.8945 13.5396 10.9649 13.61C11.0352 13.6803 11.0747 13.7757 11.0747 13.8751C11.0747 13.9746 11.0352 14.07 10.9649 14.1403C10.8945 14.2106 10.7992 14.2501 10.6997 14.2501Z" fill="#24221E"/>
<path d="M12.9497 9.37512H2.44971C2.35025 9.37512 2.25487 9.41463 2.18454 9.48496C2.11422 9.55528 2.07471 9.65067 2.07471 9.75012V16.5001C2.07471 16.5996 2.11422 16.695 2.18454 16.7653C2.25487 16.8356 2.35025 16.8751 2.44971 16.8751H12.9497C13.0492 16.8751 13.1445 16.8356 13.2149 16.7653C13.2852 16.695 13.3247 16.5996 13.3247 16.5001V9.75012C13.3247 9.65067 13.2852 9.55528 13.2149 9.48496C13.1445 9.41463 13.0492 9.37512 12.9497 9.37512ZM12.5747 16.1251H2.82471V10.1251H12.5747V16.1251ZM14.0747 16.1251H20.0747V16.8751H14.0747V16.1251ZM14.0747 14.6251H16.6997V15.3751H14.0747V14.6251ZM17.4497 14.6251H20.0747V15.3751H17.4497V14.6251Z" fill="#24221E"/>
</g>
<defs>
<clipPath id="clip0_65_3245">
<rect width="24" height="24" fill="white" transform="translate(0.199707 0.00012207)"/>
</clipPath>
</defs>
</svg>
