<svg width="25" height="25" viewBox="0 0 25 25" fill="none" xmlns="http://www.w3.org/2000/svg">
<path d="M12.1997 2.25003C9.42539 2.28369 6.77419 3.40075 4.81231 5.36263C2.85042 7.32451 1.73337 9.97571 1.69971 12.75C1.73337 15.5243 2.85042 18.1755 4.81231 20.1374C6.77419 22.0993 9.42539 23.2164 12.1997 23.25C14.974 23.2164 17.6252 22.0993 19.5871 20.1374C21.549 18.1755 22.666 15.5243 22.6997 12.75C22.666 9.97571 21.549 7.32451 19.5871 5.36263C17.6252 3.40075 14.974 2.28369 12.1997 2.25003ZM18.1997 13.5H12.9497V18.75H11.4497V13.5H6.19971V12H11.4497V6.75003H12.9497V12H18.1997V13.5Z" fill="#24221E"/>
</svg>
