<svg width="25" height="25" viewBox="0 0 25 25" fill="none" xmlns="http://www.w3.org/2000/svg">
<g clip-path="url(#clip0_65_1917)">
<path d="M12.8697 2.71706L21.3697 7.46706C21.6192 7.59163 21.8291 7.78329 21.9757 8.02053C22.1223 8.25776 22.1999 8.53117 22.1997 8.81006V10.2501C22.1997 10.9401 21.6397 11.5001 20.9497 11.5001H20.1997V19.5001H21.1997C21.4649 19.5001 21.7193 19.6054 21.9068 19.7929C22.0944 19.9805 22.1997 20.2348 22.1997 20.5001C22.1997 20.7653 22.0944 21.0196 21.9068 21.2072C21.7193 21.3947 21.4649 21.5001 21.1997 21.5001H3.19971C2.93449 21.5001 2.68014 21.3947 2.4926 21.2072C2.30506 21.0196 2.19971 20.7653 2.19971 20.5001C2.19971 20.2348 2.30506 19.9805 2.4926 19.7929C2.68014 19.6054 2.93449 19.5001 3.19971 19.5001H4.19971V11.5001H3.44971C2.75971 11.5001 2.19971 10.9401 2.19971 10.2501V8.81006C2.19971 8.28806 2.46971 7.80806 2.90571 7.53606L11.5287 2.71706C11.737 2.61286 11.9668 2.55861 12.1997 2.55861C12.4326 2.55861 12.6614 2.61286 12.8697 2.71706ZM18.1997 11.5001H6.19971V19.5001H9.19971V13.5001H11.1997V19.5001H13.1997V13.5001H15.1997V19.5001H18.1997V11.5001ZM12.1997 4.61806L4.19971 9.11806V9.50006H20.1997V9.11806L12.1997 4.61806ZM12.1997 6.50006C12.4649 6.50006 12.7193 6.60542 12.9068 6.79295C13.0943 6.98049 13.1997 7.23484 13.1997 7.50006C13.1997 7.76527 13.0943 8.01963 12.9068 8.20716C12.7193 8.3947 12.4649 8.50006 12.1997 8.50006C11.9345 8.50006 11.6801 8.3947 11.4926 8.20716C11.3051 8.01963 11.1997 7.76527 11.1997 7.50006C11.1997 7.23484 11.3051 6.98049 11.4926 6.79295C11.6801 6.60542 11.9345 6.50006 12.1997 6.50006Z" fill="#24221E"/>
</g>
<defs>
<clipPath id="clip0_65_1917">
<rect width="24" height="24" fill="white" transform="translate(0.199707 0.500061)"/>
</clipPath>
</defs>
</svg>
