<svg width="25" height="25" viewBox="0 0 25 25" fill="none" xmlns="http://www.w3.org/2000/svg">
<path d="M2.19971 12.5001C2.19971 8.72906 2.19971 6.84306 3.37171 5.67206C4.54271 4.50006 6.42871 4.50006 10.1997 4.50006H14.1997C17.9707 4.50006 19.8567 4.50006 21.0277 5.67206C22.1997 6.84306 22.1997 8.72906 22.1997 12.5001C22.1997 16.2711 22.1997 18.1571 21.0277 19.3281C19.8567 20.5001 17.9707 20.5001 14.1997 20.5001H10.1997C6.42871 20.5001 4.54271 20.5001 3.37171 19.3281C2.19971 18.1571 2.19971 16.2711 2.19971 12.5001Z" stroke="#24221E" stroke-width="1.5"/>
<path d="M10.1997 16.5001H6.19971M14.1997 16.5001H12.6997M2.19971 10.5001H22.1997" stroke="#24221E" stroke-width="1.5" stroke-linecap="round"/>
</svg>
