<svg width="25" height="24" viewBox="0 0 25 24" fill="none" xmlns="http://www.w3.org/2000/svg">
<g clip-path="url(#clip0_65_3246)">
<path d="M2.756 16.7097L4.196 18.1497V22.0001C4.19664 22.5304 4.40756 23.0387 4.78249 23.4136C5.15743 23.7886 5.66577 23.9995 6.196 24.0001H22.1996C22.7298 23.9995 23.2382 23.7886 23.6131 23.4136C23.9881 23.0387 24.199 22.5304 24.1996 22.0001V12.0001C24.1981 11.4953 24.0053 11.0097 23.6602 10.6413C23.3151 10.2728 22.8433 10.0487 22.3396 10.0141C22.5413 9.63688 22.617 9.205 22.5556 8.78166C22.4942 8.35832 22.2989 7.96573 21.9984 7.66132L16.9048 2.56452L16.9024 2.56012H16.8988L14.9264 0.58532C14.5514 0.211112 14.0433 0.000946045 13.5136 0.000946045C12.9839 0.000946045 12.4758 0.211112 12.1008 0.58532L0.784003 11.9065C0.410929 12.2835 0.20166 12.7924 0.20166 13.3227C0.20166 13.8531 0.410929 14.362 0.784003 14.7389L2.756 16.7097ZM14.9236 1.71372L16.0536 2.84452L8.902 10.0001H6.6396L14.9236 1.71372ZM4.1996 14.7025L3.0396 15.8625L1.9092 14.7321L4.1996 12.4401V14.7025ZM3.6052 16.4281L4.1996 15.8337V17.0225L3.6052 16.4281ZM23.3996 12.0001V22.0001C23.3996 22.3184 23.2732 22.6236 23.0481 22.8486C22.8231 23.0737 22.5179 23.2001 22.1996 23.2001H6.1996C5.88134 23.2001 5.57612 23.0737 5.35108 22.8486C5.12603 22.6236 4.9996 22.3184 4.9996 22.0001V12.0001C4.9996 11.6819 5.12603 11.3766 5.35108 11.1516C5.57612 10.9265 5.88134 10.8001 6.1996 10.8001H22.1996C22.5179 10.8001 22.8231 10.9265 23.0481 11.1516C23.2732 11.3766 23.3996 11.6819 23.3996 12.0001ZM21.4328 9.92532L21.3596 10.0001H10.0328L16.6192 3.41052L21.4316 8.22572C21.656 8.45154 21.7821 8.75691 21.7823 9.07527C21.7825 9.39364 21.6569 9.69919 21.4328 9.92532ZM1.3504 12.4709L12.6664 1.15092C12.8943 0.933126 13.1973 0.811386 13.5125 0.810939C13.8278 0.810492 14.1311 0.931373 14.3596 1.14852L5.27 10.2401C4.9164 10.4275 4.62713 10.7166 4.4396 11.0701L1.3444 14.1657C1.12335 13.9387 1.00016 13.634 1.00128 13.3171C1.0024 13.0002 1.12775 12.6964 1.3504 12.4709Z" fill="#24221E"/>
<path d="M6.59956 15.2001H8.99956C9.21173 15.2001 9.41522 15.1158 9.56525 14.9658C9.71528 14.8158 9.79956 14.6123 9.79956 14.4001V12.8001C9.79956 12.5879 9.71528 12.3845 9.56525 12.2344C9.41522 12.0844 9.21173 12.0001 8.99956 12.0001H6.59956C6.38739 12.0001 6.1839 12.0844 6.03388 12.2344C5.88385 12.3845 5.79956 12.5879 5.79956 12.8001V14.4001C5.79956 14.6123 5.88385 14.8158 6.03388 14.9658C6.1839 15.1158 6.38739 15.2001 6.59956 15.2001ZM6.59956 12.8001H8.99956V14.4001H6.59956V12.8001ZM6.19956 17.6001C6.30565 17.6001 6.40739 17.558 6.4824 17.483C6.55742 17.408 6.59956 17.3062 6.59956 17.2001V16.4001C6.59956 16.294 6.55742 16.1923 6.4824 16.1173C6.40739 16.0423 6.30565 16.0001 6.19956 16.0001C6.09347 16.0001 5.99173 16.0423 5.91672 16.1173C5.8417 16.1923 5.79956 16.294 5.79956 16.4001V17.2001C5.79956 17.3062 5.8417 17.408 5.91672 17.483C5.99173 17.558 6.09347 17.6001 6.19956 17.6001ZM7.79956 16.0001C7.69347 16.0001 7.59173 16.0423 7.51672 16.1173C7.4417 16.1923 7.39956 16.294 7.39956 16.4001V17.2001C7.39956 17.3062 7.4417 17.408 7.51672 17.483C7.59173 17.558 7.69347 17.6001 7.79956 17.6001C7.90565 17.6001 8.00739 17.558 8.0824 17.483C8.15742 17.408 8.19956 17.3062 8.19956 17.2001V16.4001C8.19956 16.294 8.15742 16.1923 8.0824 16.1173C8.00739 16.0423 7.90565 16.0001 7.79956 16.0001ZM8.99956 16.4001V17.2001C8.99956 17.3062 9.0417 17.408 9.11672 17.483C9.19173 17.558 9.29347 17.6001 9.39956 17.6001C9.50565 17.6001 9.60739 17.558 9.6824 17.483C9.75742 17.408 9.79956 17.3062 9.79956 17.2001V16.4001C9.79956 16.294 9.75742 16.1923 9.6824 16.1173C9.60739 16.0423 9.50565 16.0001 9.39956 16.0001C9.29347 16.0001 9.19173 16.0423 9.11672 16.1173C9.0417 16.1923 8.99956 16.294 8.99956 16.4001ZM10.9996 16.0001C10.8935 16.0001 10.7917 16.0423 10.7167 16.1173C10.6417 16.1923 10.5996 16.294 10.5996 16.4001V17.2001C10.5996 17.3062 10.6417 17.408 10.7167 17.483C10.7917 17.558 10.8935 17.6001 10.9996 17.6001C11.1056 17.6001 11.2074 17.558 11.2824 17.483C11.3574 17.408 11.3996 17.3062 11.3996 17.2001V16.4001C11.3996 16.294 11.3574 16.1923 11.2824 16.1173C11.2074 16.0423 11.1056 16.0001 10.9996 16.0001ZM12.5996 17.6001C12.7056 17.6001 12.8074 17.558 12.8824 17.483C12.9574 17.408 12.9996 17.3062 12.9996 17.2001V16.4001C12.9996 16.294 12.9574 16.1923 12.8824 16.1173C12.8074 16.0423 12.7056 16.0001 12.5996 16.0001C12.4935 16.0001 12.3917 16.0423 12.3167 16.1173C12.2417 16.1923 12.1996 16.294 12.1996 16.4001V17.2001C12.1996 17.3062 12.2417 17.408 12.3167 17.483C12.3917 17.558 12.4935 17.6001 12.5996 17.6001ZM15.7996 16.0001C15.6935 16.0001 15.5917 16.0423 15.5167 16.1173C15.4417 16.1923 15.3996 16.294 15.3996 16.4001V17.2001C15.3996 17.3062 15.4417 17.408 15.5167 17.483C15.5917 17.558 15.6935 17.6001 15.7996 17.6001C15.9056 17.6001 16.0074 17.558 16.0824 17.483C16.1574 17.408 16.1996 17.3062 16.1996 17.2001V16.4001C16.1996 16.294 16.1574 16.1923 16.0824 16.1173C16.0074 16.0423 15.9056 16.0001 15.7996 16.0001ZM17.3996 16.0001C17.2935 16.0001 17.1917 16.0423 17.1167 16.1173C17.0417 16.1923 16.9996 16.294 16.9996 16.4001V17.2001C16.9996 17.3062 17.0417 17.408 17.1167 17.483C17.1917 17.558 17.2935 17.6001 17.3996 17.6001C17.5056 17.6001 17.6074 17.558 17.6824 17.483C17.7574 17.408 17.7996 17.3062 17.7996 17.2001V16.4001C17.7996 16.294 17.7574 16.1923 17.6824 16.1173C17.6074 16.0423 17.5056 16.0001 17.3996 16.0001ZM18.9996 16.0001C18.8935 16.0001 18.7917 16.0423 18.7167 16.1173C18.6417 16.1923 18.5996 16.294 18.5996 16.4001V17.2001C18.5996 17.3062 18.6417 17.408 18.7167 17.483C18.7917 17.558 18.8935 17.6001 18.9996 17.6001C19.1056 17.6001 19.2074 17.558 19.2824 17.483C19.3574 17.408 19.3996 17.3062 19.3996 17.2001V16.4001C19.3996 16.294 19.3574 16.1923 19.2824 16.1173C19.2074 16.0423 19.1056 16.0001 18.9996 16.0001ZM20.5996 16.0001C20.4935 16.0001 20.3917 16.0423 20.3167 16.1173C20.2417 16.1923 20.1996 16.294 20.1996 16.4001V17.2001C20.1996 17.3062 20.2417 17.408 20.3167 17.483C20.3917 17.558 20.4935 17.6001 20.5996 17.6001C20.7056 17.6001 20.8074 17.558 20.8824 17.483C20.9574 17.408 20.9996 17.3062 20.9996 17.2001V16.4001C20.9996 16.294 20.9574 16.1923 20.8824 16.1173C20.8074 16.0423 20.7056 16.0001 20.5996 16.0001ZM7.79956 18.4001H6.19956C6.09347 18.4001 5.99173 18.4423 5.91672 18.5173C5.8417 18.5923 5.79956 18.694 5.79956 18.8001C5.79956 18.9062 5.8417 19.008 5.91672 19.083C5.99173 19.158 6.09347 19.2001 6.19956 19.2001H7.79956C7.90565 19.2001 8.00739 19.158 8.0824 19.083C8.15742 19.008 8.19956 18.9062 8.19956 18.8001C8.19956 18.694 8.15742 18.5923 8.0824 18.5173C8.00739 18.4423 7.90565 18.4001 7.79956 18.4001ZM10.9996 18.4001H9.39956C9.29347 18.4001 9.19173 18.4423 9.11672 18.5173C9.0417 18.5923 8.99956 18.694 8.99956 18.8001C8.99956 18.9062 9.0417 19.008 9.11672 19.083C9.19173 19.158 9.29347 19.2001 9.39956 19.2001H10.9996C11.1056 19.2001 11.2074 19.158 11.2824 19.083C11.3574 19.008 11.3996 18.9062 11.3996 18.8001C11.3996 18.694 11.3574 18.5923 11.2824 18.5173C11.2074 18.4423 11.1056 18.4001 10.9996 18.4001ZM7.79956 20.0001H6.19956C6.09347 20.0001 5.99173 20.0423 5.91672 20.1173C5.8417 20.1923 5.79956 20.294 5.79956 20.4001C5.79956 20.5062 5.8417 20.608 5.91672 20.683C5.99173 20.758 6.09347 20.8001 6.19956 20.8001H7.79956C7.90565 20.8001 8.00739 20.758 8.0824 20.683C8.15742 20.608 8.19956 20.5062 8.19956 20.4001C8.19956 20.294 8.15742 20.1923 8.0824 20.1173C8.00739 20.0423 7.90565 20.0001 7.79956 20.0001ZM10.9996 20.0001H9.39956C9.29347 20.0001 9.19173 20.0423 9.11672 20.1173C9.0417 20.1923 8.99956 20.294 8.99956 20.4001C8.99956 20.5062 9.0417 20.608 9.11672 20.683C9.19173 20.758 9.29347 20.8001 9.39956 20.8001H10.9996C11.1056 20.8001 11.2074 20.758 11.2824 20.683C11.3574 20.608 11.3996 20.5062 11.3996 20.4001C11.3996 20.294 11.3574 20.1923 11.2824 20.1173C11.2074 20.0423 11.1056 20.0001 10.9996 20.0001ZM14.1996 18.4001H12.5996C12.4935 18.4001 12.3917 18.4423 12.3167 18.5173C12.2417 18.5923 12.1996 18.694 12.1996 18.8001C12.1996 18.9062 12.2417 19.008 12.3167 19.083C12.3917 19.158 12.4935 19.2001 12.5996 19.2001H14.1996C14.3056 19.2001 14.4074 19.158 14.4824 19.083C14.5574 19.008 14.5996 18.9062 14.5996 18.8001C14.5996 18.694 14.5574 18.5923 14.4824 18.5173C14.4074 18.4423 14.3056 18.4001 14.1996 18.4001Z" fill="#24221E"/>
</g>
<defs>
<clipPath id="clip0_65_3246">
<rect width="24" height="24" fill="white" transform="translate(0.199707 0.00012207)"/>
</clipPath>
</defs>
</svg>
