<svg width="25" height="25" viewBox="0 0 25 25" fill="none" xmlns="http://www.w3.org/2000/svg">
<path d="M14.0621 4.50006H10.0621C6.29113 4.50006 4.40513 4.50006 3.23413 5.67206C2.39013 6.51506 2.15413 7.72906 2.08813 9.75006H22.0361C21.9701 7.72906 21.7341 6.51506 20.8901 5.67206C19.7191 4.50006 17.8331 4.50006 14.0621 4.50006Z" fill="#24221E"/>
<path fill-rule="evenodd" clip-rule="evenodd" d="M14.0623 20.5001H10.0623C6.29126 20.5001 4.40526 20.5001 3.23426 19.3281C2.06226 18.1571 2.06226 16.2711 2.06226 12.5001C2.06226 12.0581 2.06226 11.6421 2.06426 11.2501H22.0603C22.0623 11.6421 22.0623 12.0581 22.0623 12.5001C22.0623 16.2711 22.0623 18.1571 20.8903 19.3281C19.7193 20.5001 17.8333 20.5001 14.0623 20.5001ZM16.1073 12.7501C16.5403 12.7501 16.9373 12.7501 17.2593 12.7931C17.6153 12.8411 17.9903 12.9531 18.2993 13.2631C18.6093 13.5721 18.7213 13.9471 18.7693 14.3031C18.8123 14.6261 18.8123 15.0231 18.8123 15.4551V15.5451C18.8123 15.9781 18.8123 16.3751 18.7693 16.6971C18.7213 17.0531 18.6093 17.4281 18.2993 17.7371C17.9903 18.0471 17.6153 18.1591 17.2593 18.2071C16.9363 18.2501 16.5393 18.2501 16.1073 18.2501H16.0173C15.5843 18.2501 15.1873 18.2501 14.8653 18.2071C14.5093 18.1591 14.1343 18.0471 13.8253 17.7371C13.5153 17.4281 13.4033 17.0531 13.3553 16.6971C13.3123 16.3741 13.3123 15.9771 13.3123 15.5451V15.4551C13.3123 15.0221 13.3123 14.6251 13.3553 14.3031C13.4033 13.9471 13.5153 13.5721 13.8253 13.2631C14.1343 12.9531 14.5093 12.8411 14.8653 12.7931C15.1883 12.7501 15.5853 12.7501 16.0173 12.7501H16.1073ZM5.31226 14.0001C5.31226 13.8011 5.39127 13.6104 5.53193 13.4697C5.67258 13.3291 5.86334 13.2501 6.06226 13.2501H8.06226C8.26117 13.2501 8.45193 13.3291 8.59259 13.4697C8.73324 13.6104 8.81226 13.8011 8.81226 14.0001C8.81226 14.199 8.73324 14.3897 8.59259 14.5304C8.45193 14.671 8.26117 14.7501 8.06226 14.7501H6.06226C5.86334 14.7501 5.67258 14.671 5.53193 14.5304C5.39127 14.3897 5.31226 14.199 5.31226 14.0001ZM5.31226 17.0001C5.31226 16.8011 5.39127 16.6104 5.53193 16.4697C5.67258 16.3291 5.86334 16.2501 6.06226 16.2501H10.0623C10.2612 16.2501 10.4519 16.3291 10.5926 16.4697C10.7332 16.6104 10.8123 16.8011 10.8123 17.0001C10.8123 17.199 10.7332 17.3897 10.5926 17.5304C10.4519 17.671 10.2612 17.7501 10.0623 17.7501H6.06226C5.86334 17.7501 5.67258 17.671 5.53193 17.5304C5.39127 17.3897 5.31226 17.199 5.31226 17.0001Z" fill="#24221E"/>
<path d="M14.8853 14.3231L14.8883 14.3221C14.9452 14.3004 15.0047 14.2863 15.0653 14.2801C15.2753 14.2521 15.5693 14.2501 16.0623 14.2501C16.5553 14.2501 16.8493 14.2521 17.0593 14.2801C17.1198 14.2863 17.1793 14.3004 17.2363 14.3221L17.2393 14.3231L17.2403 14.3261C17.2619 14.383 17.276 14.4425 17.2823 14.5031C17.3103 14.7131 17.3123 15.0071 17.3123 15.5001C17.3123 15.9931 17.3103 16.2871 17.2823 16.4971C17.276 16.5576 17.2619 16.6171 17.2403 16.6741L17.2393 16.6771L17.2363 16.6781C17.1793 16.6997 17.1198 16.7138 17.0593 16.7201C16.8493 16.7481 16.5553 16.7501 16.0623 16.7501C15.5693 16.7501 15.2753 16.7481 15.0653 16.7201C15.0047 16.7138 14.9452 16.6997 14.8883 16.6781L14.8853 16.6771L14.8843 16.6741C14.8626 16.6171 14.8485 16.5576 14.8423 16.4971C14.8143 16.2871 14.8123 15.9931 14.8123 15.5001C14.8123 15.0071 14.8143 14.7131 14.8423 14.5031C14.8485 14.4425 14.8626 14.383 14.8843 14.3261L14.8853 14.3231Z" fill="#24221E"/>
</svg>
