<svg width="21" height="20" viewBox="0 0 21 20" fill="none" xmlns="http://www.w3.org/2000/svg">
<path d="M15.8306 20H4.56497C2.75243 20 1.36747 19.3012 0.661043 18.0413C-0.036087 16.7815 0.0568636 15.1575 0.939895 13.4744L6.57271 2.74606C7.50221 0.974409 8.78493 0 10.1978 0C11.6106 0 12.8934 0.974409 13.8229 2.74606L19.4557 13.4843C20.3387 15.1673 20.441 16.7815 19.7345 18.0512C19.0281 19.3012 17.6431 20 15.8306 20ZM10.1978 1.47638C9.32405 1.47638 8.4689 2.18504 7.79036 3.46457L2.16684 14.2028C1.53478 15.4035 1.43253 16.5059 1.8694 17.3032C2.30627 18.1004 3.27296 18.5335 4.57427 18.5335H15.8399C17.1412 18.5335 18.0986 18.1004 18.5448 17.3032C18.9909 16.5059 18.8794 15.4134 18.2473 14.2028L12.6052 3.46457C11.9267 2.18504 11.0715 1.47638 10.1978 1.47638Z" fill="#24221E"/>
<path d="M10.1979 12.7067C9.81676 12.7067 9.50073 12.3721 9.50073 11.9685V7.04728C9.50073 6.64374 9.81676 6.30909 10.1979 6.30909C10.579 6.30909 10.895 6.64374 10.895 7.04728V11.9685C10.895 12.3721 10.579 12.7067 10.1979 12.7067Z" fill="#24221E"/>
<path d="M10.1978 15.9056C10.142 15.9056 10.077 15.8958 10.0119 15.8859C9.95615 15.8761 9.90038 15.8564 9.8446 15.8269C9.78883 15.8072 9.73306 15.7777 9.67729 15.7383C9.63082 15.6989 9.58434 15.6595 9.53787 15.6202C9.37056 15.4332 9.26831 15.1773 9.26831 14.9214C9.26831 14.6654 9.37056 14.4095 9.53787 14.2225C9.58434 14.1832 9.63082 14.1438 9.67729 14.1044C9.73306 14.0651 9.78883 14.0355 9.8446 14.0158C9.90038 13.9863 9.95615 13.9666 10.0119 13.9568C10.1328 13.9273 10.2629 13.9273 10.3744 13.9568C10.4395 13.9666 10.4953 13.9863 10.551 14.0158C10.6068 14.0355 10.6626 14.0651 10.7183 14.1044C10.7648 14.1438 10.8113 14.1832 10.8578 14.2225C11.0251 14.4095 11.1273 14.6654 11.1273 14.9214C11.1273 15.1773 11.0251 15.4332 10.8578 15.6202C10.8113 15.6595 10.7648 15.6989 10.7183 15.7383C10.6626 15.7777 10.6068 15.8072 10.551 15.8269C10.4953 15.8564 10.4395 15.8761 10.3744 15.8859C10.3187 15.8958 10.2536 15.9056 10.1978 15.9056Z" fill="#24221E"/>
</svg>
