<svg width="25" height="24" viewBox="0 0 25 24" fill="none" xmlns="http://www.w3.org/2000/svg">
<path fill-rule="evenodd" clip-rule="evenodd" d="M12.4501 2.25822C12.1917 2.24793 11.9328 2.24793 11.6742 2.25823C11.5719 2.24283 11.4682 2.24897 11.3696 2.27513C10.7184 2.32151 10.0704 2.43339 9.43554 2.611C7.58112 3.12978 5.92184 4.18605 4.66695 5.64662C3.41207 7.10718 2.61777 8.90663 2.38423 10.818C2.1507 12.7294 2.48838 14.6672 3.35469 16.3869C4.221 18.1067 5.57715 19.5314 7.25211 20.4814C8.52147 21.2013 9.93085 21.6242 11.3749 21.7263C11.4702 21.7508 11.5701 21.7567 11.6688 21.7426C12.0335 21.7573 12.3999 21.7516 12.7664 21.725C13.1796 21.6951 13.4902 21.336 13.4603 20.9228C13.4304 20.5097 13.0712 20.199 12.6581 20.229C12.4333 20.2452 12.2086 20.2523 11.9845 20.2501C11.1557 18.8438 10.5468 17.3261 10.173 15.75H12.5623C12.9765 15.75 13.3123 15.4142 13.3123 15C13.3123 14.5858 12.9765 14.25 12.5623 14.25H9.89089C9.78704 13.5072 9.73438 12.7555 9.73438 12C9.73438 11.2445 9.78704 10.4928 9.89089 9.75H14.2336C14.3383 10.4984 14.391 11.2559 14.3902 12.0172C14.3897 12.4314 14.7252 12.7676 15.1394 12.768C15.5536 12.7684 15.8897 12.433 15.8902 12.0188C15.891 11.2576 15.8428 10.4998 15.747 9.75H19.9994C20.1469 10.2701 20.2436 10.806 20.2866 11.3501C20.3192 11.7631 20.6805 12.0713 21.0934 12.0387C21.5063 12.006 21.8146 11.6448 21.7819 11.2319C21.6301 9.31226 20.9133 7.48057 19.7218 5.96781C18.5304 4.45505 16.9177 3.32897 15.0871 2.73158C14.3271 2.48357 13.5437 2.33129 12.7547 2.27512C12.6561 2.24897 12.5524 2.24283 12.4501 2.25822ZM11.9839 3.75088C12.0361 3.75038 12.0883 3.75038 12.1405 3.75088C12.969 5.157 13.5777 6.67427 13.9515 8.25H10.173C10.5467 6.67424 11.1554 5.15698 11.9839 3.75088ZM10.1522 3.97465C10.0477 3.99954 9.94345 4.0265 9.83965 4.05554C8.27053 4.4945 6.86652 5.38828 5.80469 6.62414C5.37565 7.1235 5.01024 7.66968 4.71405 8.25H8.63502C8.95519 6.76879 9.46437 5.33163 10.1522 3.97465ZM8.37755 9.75H4.12515C4.00951 10.1578 3.92501 10.5756 3.87316 10.9999C3.73943 12.0944 3.82706 13.1992 4.12486 14.25H8.37755C8.28251 13.5063 8.23438 12.7549 8.23438 12C8.23438 11.2451 8.28251 10.4937 8.37755 9.75ZM8.63502 15.75H4.71354C5.44733 17.1882 6.58719 18.3798 7.99214 19.1766C8.67239 19.5624 9.40016 19.8474 10.1528 20.0265C9.46466 18.6692 8.95528 17.2316 8.63502 15.75ZM15.4895 8.25C15.1693 6.7688 14.66 5.33162 13.9721 3.97461C14.1905 4.02657 14.4072 4.08756 14.6217 4.15756C16.1707 4.66305 17.5353 5.61589 18.5434 6.89592C18.8775 7.32002 19.1674 7.77376 19.4105 8.25H15.4895ZM19.0622 14.2494C18.3204 14.2494 17.5954 14.4693 16.9787 14.8814C16.362 15.2935 15.8813 15.8793 15.5975 16.5646C15.3137 17.2498 15.2395 18.0039 15.3843 18.7314C15.5291 19.4588 15.8864 20.127 16.4109 20.6514C16.8543 21.0954 17.5832 21.7398 18.5807 22.575C18.8605 22.8093 19.2682 22.8082 19.5468 22.5724C20.596 21.6842 21.3257 21.0391 21.7134 20.6514L20.7542 19.4825C20.7542 19.4824 20.7542 19.4824 20.7543 19.4824L21.7135 20.6513C22.238 20.1269 22.5953 19.4588 22.74 18.7314C22.8848 18.0039 22.8106 17.2498 22.5268 16.5646C22.243 15.8793 21.7624 15.2935 21.1457 14.8814C20.529 14.4693 19.8039 14.2494 19.0622 14.2494ZM19.7638 18.2755L20.7543 19.4824C21.0138 19.1863 21.1917 18.8265 21.2689 18.4386C21.3558 18.0021 21.3112 17.5497 21.141 17.1385C20.9707 16.7273 20.6823 16.3759 20.3123 16.1286C19.9422 15.8813 19.5072 15.7494 19.0622 15.7494C18.6666 15.7494 18.279 15.8536 17.9379 16.0504L16.9787 14.8814L17.9379 16.0504C17.8952 16.075 17.8532 16.1011 17.8121 16.1286C17.442 16.3759 17.1537 16.7273 16.9834 17.1385C16.8131 17.5497 16.7686 18.0021 16.8555 18.4386C16.9423 18.875 17.1567 19.276 17.4714 19.5906L17.4719 19.5911C17.7973 19.917 18.3235 20.3905 19.06 21.017C19.8433 20.3463 20.3698 19.8737 20.6528 19.5907L20.6529 19.5906C20.6879 19.5556 20.7217 19.5195 20.7542 19.4825L19.7638 18.2755C19.7638 18.2755 19.7638 18.2755 19.7638 18.2755ZM18.9316 17.2613L17.9379 16.0504C17.9379 16.0504 17.9379 16.0504 17.9379 16.0504L18.9316 17.2613C18.5796 17.3231 18.3122 17.6303 18.3122 18V18.01C18.3122 18.4242 18.648 18.76 19.0622 18.76C19.3829 18.76 19.6566 18.5587 19.7638 18.2755L18.9316 17.2613C18.9316 17.2613 18.9316 17.2613 18.9316 17.2613ZM18.9316 17.2613L19.7638 18.2755C19.7951 18.1929 19.8122 18.1035 19.8122 18.01V18C19.8122 17.5858 19.4764 17.25 19.0622 17.25C19.0176 17.25 18.974 17.2539 18.9316 17.2613Z" fill="#24221E"/>
</svg>
