<svg width="21" height="21" viewBox="0 0 21 21" fill="none" xmlns="http://www.w3.org/2000/svg">
<g clip-path="url(#clip0_32_745)">
<path d="M5.87271 0.750031C6.05836 0.750031 6.23641 0.82378 6.36768 0.955056C6.49896 1.08633 6.57271 1.26438 6.57271 1.45003V2.75903H14.0897V1.45903C14.0897 1.27338 14.1635 1.09533 14.2947 0.964056C14.426 0.83278 14.6041 0.759031 14.7897 0.759031C14.9754 0.759031 15.1534 0.83278 15.2847 0.964056C15.416 1.09533 15.4897 1.27338 15.4897 1.45903V2.75903H18.1997C18.73 2.75903 19.2385 2.96961 19.6136 3.34446C19.9886 3.71932 20.1994 4.22777 20.1997 4.75803V18.751C20.1994 19.2813 19.9886 19.7897 19.6136 20.1646C19.2385 20.5395 18.73 20.75 18.1997 20.75H2.19971C1.66945 20.75 1.16089 20.5395 0.785847 20.1646C0.410803 19.7897 0.199972 19.2813 0.199707 18.751L0.199707 4.75803C0.199972 4.22777 0.410803 3.71932 0.785847 3.34446C1.16089 2.96961 1.66945 2.75903 2.19971 2.75903H5.17271V1.44903C5.17297 1.26355 5.24684 1.08576 5.37809 0.954702C5.50933 0.823643 5.68723 0.75003 5.87271 0.750031ZM1.59971 8.49203V18.751C1.59971 18.8298 1.61523 18.9078 1.64538 18.9806C1.67553 19.0534 1.71973 19.1196 1.77544 19.1753C1.83116 19.231 1.8973 19.2752 1.9701 19.3054C2.04289 19.3355 2.12091 19.351 2.19971 19.351H18.1997C18.2785 19.351 18.3565 19.3355 18.4293 19.3054C18.5021 19.2752 18.5683 19.231 18.624 19.1753C18.6797 19.1196 18.7239 19.0534 18.754 18.9806C18.7842 18.9078 18.7997 18.8298 18.7997 18.751V8.50603L1.59971 8.49203ZM6.86671 15.369V17.035H5.19971V15.369H6.86671ZM11.0327 15.369V17.035H9.36671V15.369H11.0327ZM15.1997 15.369V17.035H13.5327V15.369H15.1997ZM6.86671 11.392V13.058H5.19971V11.392H6.86671ZM11.0327 11.392V13.058H9.36671V11.392H11.0327ZM15.1997 11.392V13.058H13.5327V11.392H15.1997ZM5.17271 4.15803H2.19971C2.12091 4.15803 2.04289 4.17355 1.9701 4.2037C1.8973 4.23386 1.83116 4.27805 1.77544 4.33377C1.71973 4.38948 1.67553 4.45563 1.64538 4.52842C1.61523 4.60122 1.59971 4.67924 1.59971 4.75803V7.09303L18.7997 7.10703V4.75803C18.7997 4.67924 18.7842 4.60122 18.754 4.52842C18.7239 4.45563 18.6797 4.38948 18.624 4.33377C18.5683 4.27805 18.5021 4.23386 18.4293 4.2037C18.3565 4.17355 18.2785 4.15803 18.1997 4.15803H15.4897V5.08703C15.4897 5.27268 15.416 5.45073 15.2847 5.58201C15.1534 5.71328 14.9754 5.78703 14.7897 5.78703C14.6041 5.78703 14.426 5.71328 14.2947 5.58201C14.1635 5.45073 14.0897 5.27268 14.0897 5.08703V4.15803H6.57271V5.07803C6.57271 5.26368 6.49896 5.44173 6.36768 5.57301C6.23641 5.70428 6.05836 5.77803 5.87271 5.77803C5.68706 5.77803 5.50901 5.70428 5.37773 5.57301C5.24646 5.44173 5.17271 5.26368 5.17271 5.07803V4.15803Z" fill="#24221E"/>
</g>
<defs>
<clipPath id="clip0_32_745">
<rect width="20" height="20" fill="white" transform="translate(0.199707 0.750031)"/>
</clipPath>
</defs>
</svg>
