<svg width="25" height="24" viewBox="0 0 25 24" fill="none" xmlns="http://www.w3.org/2000/svg">
<path d="M7.87964 17.013L12.2926 16.998L21.9246 7.458C22.3026 7.08 22.5106 6.578 22.5106 6.044C22.5106 5.51 22.3026 5.008 21.9246 4.63L20.3386 3.044C19.5826 2.288 18.2636 2.292 17.5136 3.041L7.87964 12.583V17.013ZM18.9246 4.458L20.5136 6.041L18.9166 7.623L17.3306 6.038L18.9246 4.458ZM9.87964 13.417L15.9096 7.444L17.4956 9.03L11.4666 15.001L9.87964 15.006V13.417Z" fill="#24221E"/>
<path d="M5.87964 21H19.8796C20.9826 21 21.8796 20.103 21.8796 19V10.332L19.8796 12.332V19H9.03764C9.01164 19 8.98464 19.01 8.95864 19.01C8.92564 19.01 8.89264 19.001 8.85864 19H5.87964V5H12.7266L14.7266 3H5.87964C4.77664 3 3.87964 3.897 3.87964 5V19C3.87964 20.103 4.77664 21 5.87964 21Z" fill="#24221E"/>
</svg>
