<svg width="25" height="24" viewBox="0 0 25 24" fill="none" xmlns="http://www.w3.org/2000/svg">
<path fill-rule="evenodd" clip-rule="evenodd" d="M1.20317 3.31116C1.36546 3.14887 1.58558 3.05769 1.81509 3.05769H22.5843C22.8138 3.05769 23.034 3.14887 23.1962 3.31116C23.3585 3.47345 23.4497 3.69356 23.4497 3.92308V17.7692C23.4497 18.6108 23.1154 19.4179 22.5203 20.0129C21.9253 20.608 21.1182 20.9423 20.2766 20.9423H4.12278C3.28123 20.9423 2.47415 20.608 1.87908 20.0129C1.28401 19.4179 0.949707 18.6108 0.949707 17.7692V3.92308C0.949707 3.69356 1.04088 3.47345 1.20317 3.31116ZM3.74126 4.78846L12.1998 13.247L20.6583 4.78846H3.74126ZM21.7189 5.84919V17.7692C21.7189 18.5654 21.0728 19.2115 20.2766 19.2115H4.12278C3.32663 19.2115 2.68048 18.5654 2.68048 17.7692V5.849L11.6695 14.838C11.9624 15.1309 12.4372 15.1309 12.7301 14.838L21.7189 5.84919Z" fill="#24221E"/>
</svg>
