<svg width="25" height="24" viewBox="0 0 25 24" fill="none" xmlns="http://www.w3.org/2000/svg">
<path d="M14.7296 9.47L9.66963 14.53C9.01963 13.88 8.61963 12.99 8.61963 12C8.61963 10.02 10.2196 8.42 12.1996 8.42C13.1896 8.42 14.0796 8.82 14.7296 9.47Z" stroke="#24221E" stroke-width="1.5" stroke-linecap="round" stroke-linejoin="round"/>
<path d="M18.0198 5.77C16.2698 4.45 14.2698 3.73 12.1998 3.73C8.66979 3.73 5.37979 5.81 3.08979 9.41C2.18979 10.82 2.18979 13.19 3.08979 14.6C3.87979 15.84 4.79979 16.91 5.79979 17.77" stroke="#24221E" stroke-width="1.5" stroke-linecap="round" stroke-linejoin="round"/>
<path d="M8.61963 19.53C9.75963 20.01 10.9696 20.27 12.1996 20.27C15.7296 20.27 19.0196 18.19 21.3096 14.59C22.2096 13.18 22.2096 10.81 21.3096 9.4C20.9796 8.88 20.6196 8.39 20.2496 7.93" stroke="#24221E" stroke-width="1.5" stroke-linecap="round" stroke-linejoin="round"/>
<path d="M15.7096 12.7C15.4496 14.11 14.2996 15.26 12.8896 15.52" stroke="#24221E" stroke-width="1.5" stroke-linecap="round" stroke-linejoin="round"/>
<path d="M9.66971 14.53L2.19971 22" stroke="#24221E" stroke-width="1.5" stroke-linecap="round" stroke-linejoin="round"/>
<path d="M22.1997 2L14.7297 9.47" stroke="#24221E" stroke-width="1.5" stroke-linecap="round" stroke-linejoin="round"/>
</svg>
