<svg width="25" height="25" viewBox="0 0 25 25" fill="none" xmlns="http://www.w3.org/2000/svg">
<path d="M15.6422 12.75C15.6422 14.73 14.0422 16.33 12.0622 16.33C10.0822 16.33 8.48218 14.73 8.48218 12.75C8.48218 10.77 10.0822 9.17003 12.0622 9.17003C14.0422 9.17003 15.6422 10.77 15.6422 12.75Z" stroke="#24221E" stroke-width="1.5" stroke-linecap="round" stroke-linejoin="round"/>
<path d="M12.0623 21.02C15.5923 21.02 18.8823 18.94 21.1723 15.34C22.0723 13.93 22.0723 11.56 21.1723 10.15C18.8823 6.55003 15.5923 4.47003 12.0623 4.47003C8.53234 4.47003 5.24234 6.55003 2.95234 10.15C2.05234 11.56 2.05234 13.93 2.95234 15.34C5.24234 18.94 8.53234 21.02 12.0623 21.02Z" stroke="#24221E" stroke-width="1.5" stroke-linecap="round" stroke-linejoin="round"/>
</svg>
