<svg width="25" height="25" viewBox="0 0 25 25" fill="none" xmlns="http://www.w3.org/2000/svg">
<path d="M22.1972 10.1701C22.1341 9.98714 22.0192 9.82648 21.8666 9.70756C21.7139 9.58863 21.53 9.51655 21.3372 9.50005L15.6472 8.67005L13.0972 3.50005C13.0154 3.33098 12.8875 3.1884 12.7283 3.08863C12.5692 2.98886 12.3851 2.93594 12.1972 2.93594C12.0094 2.93594 11.8253 2.98886 11.6662 3.08863C11.507 3.1884 11.3791 3.33098 11.2972 3.50005L8.74724 8.66005L3.05724 9.50005C2.87217 9.52636 2.69817 9.60402 2.55499 9.72421C2.41182 9.84441 2.3052 10.0023 2.24724 10.1801C2.19419 10.3537 2.18943 10.5386 2.23347 10.7147C2.27751 10.8909 2.3687 11.0518 2.49724 11.1801L6.62724 15.1801L5.62724 20.8601C5.58687 21.0485 5.6018 21.2445 5.67023 21.4247C5.73866 21.6048 5.85768 21.7614 6.01297 21.8755C6.16826 21.9895 6.35321 22.0563 6.54557 22.0678C6.73793 22.0793 6.9295 22.0349 7.09724 21.9401L12.1972 19.2701L17.2972 21.9401C17.4376 22.0192 17.5961 22.0606 17.7572 22.0601C17.9691 22.0608 18.1757 21.9943 18.3472 21.8701C18.5024 21.7589 18.6225 21.6057 18.6934 21.4285C18.7642 21.2513 18.7829 21.0575 18.7472 20.8701L17.7472 15.1901L21.8772 11.1901C22.0216 11.0677 22.1283 10.907 22.185 10.7264C22.2416 10.5458 22.2459 10.3529 22.1972 10.1701ZM16.0472 14.1701C15.9315 14.2825 15.8447 14.4212 15.7942 14.5744C15.7437 14.7277 15.731 14.8909 15.7572 15.0501L16.4772 19.2501L12.7172 17.2501C12.5711 17.1778 12.4103 17.1402 12.2472 17.1402C12.0842 17.1402 11.9234 17.1778 11.7772 17.2501L8.01724 19.2501L8.73724 15.0501C8.76348 14.8909 8.75081 14.7277 8.70031 14.5744C8.64981 14.4212 8.56299 14.2825 8.44724 14.1701L5.44724 11.1701L9.65724 10.5601C9.81924 10.5375 9.97324 10.4756 10.1057 10.3797C10.2382 10.2838 10.3452 10.1569 10.4172 10.0101L12.1972 6.20005L14.0772 10.0201C14.1493 10.1669 14.2562 10.2938 14.3887 10.3897C14.5212 10.4856 14.6752 10.5475 14.8372 10.5701L19.0472 11.1801L16.0472 14.1701Z" fill="#24221E"/>
</svg>
