<svg width="25" height="24" viewBox="0 0 25 24" fill="none" xmlns="http://www.w3.org/2000/svg">
<g clip-path="url(#clip0_65_3247)">
<path d="M19.8641 7.11163C19.6806 7.29509 19.6806 7.59256 19.8641 7.77603L21.0148 8.92672H14.7102C14.0879 8.92672 13.5029 9.16902 13.0629 9.60903C12.623 10.049 12.3806 10.634 12.3806 11.2563V12.5581C12.3806 12.8175 12.5909 13.0279 12.8504 13.0279C13.1099 13.0279 13.3203 12.8176 13.3203 12.5581V11.2563C13.3203 10.4899 13.9438 9.86637 14.7102 9.86637H21.0148L19.8641 11.0171C19.6806 11.2005 19.6806 11.498 19.8641 11.6815C19.9558 11.7732 20.076 11.8191 20.1963 11.8191C20.3165 11.8191 20.4367 11.7732 20.5285 11.6815L22.4811 9.72875C22.6646 9.54528 22.6646 9.24781 22.4811 9.06434L20.5285 7.11167C20.345 6.92816 20.0475 6.92816 19.8641 7.11163Z" fill="#24221E"/>
<path d="M22.5299 15.8549C22.2346 15.1567 21.812 14.5297 21.2736 13.9914C20.7353 13.4531 20.1084 13.0304 19.4102 12.7351C18.687 12.4293 17.9192 12.2742 17.1279 12.2742C16.3366 12.2742 15.5687 12.4293 14.8456 12.7351C14.1474 13.0304 13.5204 13.4531 12.9821 13.9914C12.4438 14.5297 12.0211 15.1566 11.7258 15.8549C11.42 16.578 11.2649 17.3459 11.2649 18.1372C11.2649 18.9285 11.42 19.6963 11.7258 20.4195C12.0211 21.1177 12.4438 21.7446 12.9821 22.283C13.5204 22.8213 14.1474 23.2439 14.8456 23.5392C15.5687 23.8451 16.3366 24.0002 17.1279 24.0002C17.9192 24.0002 18.687 23.8451 19.4102 23.5392C20.1084 23.2439 20.7353 22.8213 21.2736 22.283C21.812 21.7446 22.2346 21.1177 22.5299 20.4195C22.8358 19.6963 22.9909 18.9285 22.9909 18.1372C22.9909 17.3459 22.8358 16.578 22.5299 15.8549ZM17.1279 23.0605C14.4132 23.0605 12.2046 20.8519 12.2046 18.1371C12.2046 15.4224 14.4132 13.2138 17.1279 13.2138C19.8426 13.2138 22.0513 15.4224 22.0513 18.1371C22.0513 20.8519 19.8426 23.0605 17.1279 23.0605Z" fill="#24221E"/>
<path d="M19.7315 17.6674H17.5977V14.2318C17.5977 13.9724 17.3874 13.762 17.1279 13.762C16.8684 13.762 16.658 13.9723 16.658 14.2318V18.1372C16.658 18.3967 16.8684 18.607 17.1279 18.607H19.7314C19.9909 18.607 20.2013 18.3967 20.2013 18.1372C20.2013 17.8777 19.9909 17.6674 19.7315 17.6674ZM4.66783 6.88106C4.40837 6.88106 4.198 7.09138 4.198 7.35088V7.72284C4.198 8.49464 4.82589 9.12248 5.59764 9.12248H5.87172V9.58251C5.87172 9.84196 6.08204 10.0523 6.34154 10.0523C6.601 10.0523 6.81137 9.84201 6.81137 9.58251V9.12248H7.08545C7.85725 9.12248 8.48514 8.49459 8.48514 7.72284V6.97898C8.48514 6.20723 7.85725 5.57934 7.08545 5.57934H5.59769C5.34404 5.57934 5.13765 5.37295 5.13765 5.11931V4.37535C5.13765 4.12171 5.34404 3.91532 5.59769 3.91532H7.08545C7.33914 3.91532 7.54548 4.12171 7.54548 4.37535V4.74731C7.54548 5.00676 7.75581 5.21713 8.01531 5.21713C8.27481 5.21713 8.48514 5.00681 8.48514 4.74731V4.37535C8.48514 3.60356 7.85725 2.97571 7.08545 2.97571H6.81137V2.51564C6.81137 2.25618 6.60104 2.04581 6.34154 2.04581C6.08209 2.04581 5.87172 2.25614 5.87172 2.51564V2.97571H5.59764C4.82589 2.97571 4.198 3.6036 4.198 4.37535V5.11921C4.198 5.89101 4.82589 6.5189 5.59764 6.5189H7.0854C7.33909 6.5189 7.54544 6.72529 7.54544 6.97893V7.72279C7.54544 7.97643 7.33904 8.18282 7.0854 8.18282H5.59764C5.344 8.18282 5.13761 7.97643 5.13761 7.72279V7.35084C5.13765 7.09139 4.92733 6.88106 4.66783 6.88106Z" fill="#24221E"/>
<path d="M12.8505 23.0605H2.62213C2.54947 23.0604 2.47981 23.0315 2.42843 22.9801C2.37705 22.9288 2.34814 22.8591 2.34806 22.7864V2.51562C2.34806 1.6467 3.05498 0.939731 3.92395 0.939731H17.2127C16.8534 1.38509 16.6581 1.93531 16.6581 2.51562V7.90878C16.6581 8.16823 16.8684 8.37861 17.1279 8.37861C17.3873 8.37861 17.5977 8.16828 17.5977 7.90878V6.14693H20.8473C21.3115 6.14693 21.6891 5.76931 21.6891 5.3052V2.51562C21.6891 1.84372 21.4274 1.21203 20.9523 0.736903C20.4771 0.261778 19.8455 0.00012207 19.1736 0.00012207H3.92395C3.25204 0.00012207 2.62035 0.261778 2.14523 0.736903C1.6701 1.21198 1.40845 1.84372 1.40845 2.51562V22.7864C1.40845 23.4557 1.9529 24.0001 2.62213 24.0001H12.8505C13.11 24.0001 13.3204 23.7898 13.3204 23.5303C13.3204 23.2708 13.11 23.0605 12.8505 23.0605ZM20.7494 2.51562V5.20732H17.5977V2.51562C17.5977 1.6467 18.3046 0.939778 19.1735 0.939731H19.1736C20.0425 0.939731 20.7494 1.64665 20.7494 2.51562Z" fill="#24221E"/>
<path d="M9.87491 5.21706H15.0821C15.3415 5.21706 15.5519 5.00673 15.5519 4.74723C15.5519 4.48778 15.3416 4.2774 15.0821 4.2774H9.87491C9.61546 4.2774 9.40508 4.48773 9.40508 4.74723C9.40508 5.00673 9.61546 5.21706 9.87491 5.21706ZM15.5519 7.72276C15.5519 7.46331 15.3416 7.25294 15.0821 7.25294H9.87491C9.61546 7.25294 9.40508 7.46326 9.40508 7.72276C9.40508 7.98222 9.61541 8.19259 9.87491 8.19259H15.0821C15.3416 8.19259 15.5519 7.98226 15.5519 7.72276ZM10.8048 10.7864H4.2958C4.03635 10.7864 3.82597 10.9967 3.82597 11.2562C3.82597 11.5157 4.0363 11.7261 4.2958 11.7261H10.8048C11.0642 11.7261 11.2746 11.5157 11.2746 11.2562C11.2746 10.9967 11.0642 10.7864 10.8048 10.7864ZM11.2746 14.2318C11.2746 13.9723 11.0642 13.762 10.8047 13.762H4.2958C4.03635 13.762 3.82597 13.9723 3.82597 14.2318C3.82597 14.4913 4.0363 14.7016 4.2958 14.7016H10.8048C11.0642 14.7016 11.2746 14.4912 11.2746 14.2318ZM9.87491 16.7375H4.29576C4.0363 16.7375 3.82593 16.9478 3.82593 17.2073C3.82593 17.4668 4.03626 17.6771 4.29576 17.6771H9.87487C10.1343 17.6771 10.3447 17.4668 10.3447 17.2073C10.3447 16.9478 10.1344 16.7375 9.87491 16.7375ZM4.29576 19.713C4.0363 19.713 3.82593 19.9233 3.82593 20.1828C3.82593 20.4423 4.03626 20.6527 4.29576 20.6527H9.87487C10.1343 20.6527 10.3447 20.4423 10.3447 20.1828C10.3447 19.9233 10.1344 19.713 9.87487 19.713H4.29576Z" fill="#24221E"/>
</g>
<defs>
<clipPath id="clip0_65_3247">
<rect width="24" height="24" fill="white" transform="translate(0.199707 0.00012207)"/>
</clipPath>
</defs>
</svg>
