<svg width="21" height="21" viewBox="0 0 21 21" fill="none" xmlns="http://www.w3.org/2000/svg">
<path d="M15.5858 20.2501H4.81366C2.26482 20.2501 0.199707 18.1734 0.199707 15.6218V8.72126C0.199707 7.45476 0.981102 5.86233 1.98575 5.08008L6.99971 1.16883C8.50668 -0.00454044 10.916 -0.0604154 12.4788 1.03846L18.2276 5.07077C19.3346 5.8437 20.1997 7.50133 20.1997 8.85164V15.6311C20.1997 18.1734 18.1346 20.2501 15.5858 20.2501ZM7.85552 2.26771L2.84157 6.17895C2.1811 6.70045 1.59506 7.88314 1.59506 8.72126V15.6218C1.59506 17.4005 3.03692 18.8532 4.81366 18.8532H15.5858C17.3625 18.8532 18.8044 17.4098 18.8044 15.6311V8.85164C18.8044 7.95764 18.1625 6.71908 17.4276 6.2162L11.6788 2.18389C10.6183 1.4389 8.86947 1.47615 7.85552 2.26771Z" fill="#24221E"/>
<path d="M10.1996 16.5252C9.81823 16.5252 9.50195 16.2085 9.50195 15.8267V13.033C9.50195 12.6512 9.81823 12.3345 10.1996 12.3345C10.581 12.3345 10.8973 12.6512 10.8973 13.033V15.8267C10.8973 16.2085 10.581 16.5252 10.1996 16.5252Z" fill="#24221E"/>
</svg>
