<svg width="25" height="25" viewBox="0 0 25 25" fill="none" xmlns="http://www.w3.org/2000/svg">
<path d="M9.43707 15.8701C9.62707 15.8701 9.81707 15.8001 9.96707 15.6501C10.2571 15.3601 10.2571 14.8801 9.96707 14.5901L7.93707 12.5601L9.96707 10.5301C10.2571 10.2401 10.2571 9.76006 9.96707 9.47006C9.67707 9.18006 9.19707 9.18006 8.90707 9.47006L6.34707 12.0301C6.05707 12.3201 6.05707 12.8001 6.34707 13.0901L8.90707 15.6501C9.04707 15.8001 9.24707 15.8701 9.43707 15.8701Z" fill="#24221E"/>
<path d="M6.94719 13.3101H17.1172C17.5272 13.3101 17.8672 12.9701 17.8672 12.5601C17.8672 12.1501 17.5272 11.8101 17.1172 11.8101H6.94719C6.53719 11.8101 6.19719 12.1501 6.19719 12.5601C6.19719 12.9701 6.53719 13.3101 6.94719 13.3101Z" fill="#24221E"/>
<path d="M12.8796 21.2501C12.4696 21.2501 12.1296 20.9101 12.1296 20.5001C12.1296 20.0901 12.4696 19.7501 12.8796 19.7501C17.1496 19.7501 20.1296 16.7701 20.1296 12.5001C20.1296 8.23006 17.1496 5.25006 12.8796 5.25006C12.4696 5.25006 12.1296 4.91006 12.1296 4.50006C12.1296 4.09006 12.4696 3.75006 12.8796 3.75006C18.0296 3.75006 21.6296 7.35006 21.6296 12.5001C21.6296 17.6501 18.0296 21.2501 12.8796 21.2501Z" fill="#24221E"/>
</svg>
