<svg width="21" height="21" viewBox="0 0 21 21" fill="none" xmlns="http://www.w3.org/2000/svg">
<path d="M5.30523 11.5696C4.24967 11.5696 3.39551 10.7154 3.39551 9.65984C3.39551 8.60429 4.24967 7.75012 5.30523 7.75012C6.36079 7.75012 7.21495 8.60429 7.21495 9.65984C7.21495 10.7154 6.36079 11.5696 5.30523 11.5696ZM5.30523 8.79179C4.82606 8.79179 4.43717 9.18068 4.43717 9.65984C4.43717 10.139 4.82606 10.5279 5.30523 10.5279C5.7844 10.5279 6.17329 10.139 6.17329 9.65984C6.17329 9.18068 5.7844 8.79179 5.30523 8.79179Z" fill="#24221E"/>
<path d="M15.0274 11.5696C13.9718 11.5696 13.1177 10.7154 13.1177 9.65984C13.1177 8.60429 13.9718 7.75012 15.0274 7.75012C16.083 7.75012 16.9371 8.60429 16.9371 9.65984C16.9371 10.7154 16.083 11.5696 15.0274 11.5696ZM15.0274 8.79179C14.5482 8.79179 14.1593 9.18068 14.1593 9.65984C14.1593 10.139 14.5482 10.5279 15.0274 10.5279C15.5066 10.5279 15.8955 10.139 15.8955 9.65984C15.8955 9.18068 15.5066 8.79179 15.0274 8.79179Z" fill="#24221E"/>
<path d="M10.1663 11.5696C9.11076 11.5696 8.25659 10.7154 8.25659 9.65984C8.25659 8.60429 9.11076 7.75012 10.1663 7.75012C11.2219 7.75012 12.076 8.60429 12.076 9.65984C12.076 10.7154 11.2219 11.5696 10.1663 11.5696ZM10.1663 8.79179C9.68715 8.79179 9.29826 9.18068 9.29826 9.65984C9.29826 10.139 9.68715 10.5279 10.1663 10.5279C10.6455 10.5279 11.0344 10.139 11.0344 9.65984C11.0344 9.18068 10.6455 8.79179 10.1663 8.79179Z" fill="#24221E"/>
</svg>
