<svg width="25" height="25" viewBox="0 0 25 25" fill="none" xmlns="http://www.w3.org/2000/svg">
<path d="M17.7862 16.25V11.25C17.7862 8.18003 16.1462 5.61003 13.2862 4.93003V4.25003C13.2862 3.42003 12.6162 2.75003 11.7862 2.75003C10.9562 2.75003 10.2862 3.42003 10.2862 4.25003V4.93003C7.41618 5.61003 5.78618 8.17003 5.78618 11.25V16.25L4.49618 17.54C3.86618 18.17 4.30618 19.25 5.19618 19.25H18.3662C19.2562 19.25 19.7062 18.17 19.0762 17.54L17.7862 16.25Z" fill="#24221E"/>
<path d="M13.7861 20.25C13.7861 21.35 12.8861 22.25 11.7861 22.25C11.2557 22.25 10.747 22.0393 10.3719 21.6642C9.99685 21.2892 9.78613 20.7805 9.78613 20.25H13.7861Z" fill="#871E35"/>
</svg>
