<svg width="25" height="24" viewBox="0 0 25 24" fill="none" xmlns="http://www.w3.org/2000/svg">
<path d="M12.1997 17C11.6693 17 11.1606 16.7893 10.7855 16.4142C10.4104 16.0391 10.1997 15.5304 10.1997 15C10.1997 13.89 11.0897 13 12.1997 13C12.7301 13 13.2388 13.2107 13.6139 13.5858C13.989 13.9609 14.1997 14.4696 14.1997 15C14.1997 15.5304 13.989 16.0391 13.6139 16.4142C13.2388 16.7893 12.7301 17 12.1997 17ZM18.1997 20V10H6.19971V20H18.1997ZM18.1997 8C18.7301 8 19.2388 8.21071 19.6139 8.58579C19.989 8.96086 20.1997 9.46957 20.1997 10V20C20.1997 20.5304 19.989 21.0391 19.6139 21.4142C19.2388 21.7893 18.7301 22 18.1997 22H6.19971C5.66927 22 5.16057 21.7893 4.78549 21.4142C4.41042 21.0391 4.19971 20.5304 4.19971 20V10C4.19971 8.89 5.08971 8 6.19971 8H7.19971V6C7.19971 4.67392 7.72649 3.40215 8.66417 2.46447C9.60186 1.52678 10.8736 1 12.1997 1C12.8563 1 13.5065 1.12933 14.1131 1.3806C14.7198 1.63188 15.2709 2.00017 15.7352 2.46447C16.1995 2.92876 16.5678 3.47995 16.8191 4.08658C17.0704 4.69321 17.1997 5.34339 17.1997 6V8H18.1997ZM12.1997 3C11.4041 3 10.641 3.31607 10.0784 3.87868C9.51578 4.44129 9.19971 5.20435 9.19971 6V8H15.1997V6C15.1997 5.20435 14.8836 4.44129 14.321 3.87868C13.7584 3.31607 12.9954 3 12.1997 3Z" fill="#24221E"/>
</svg>
