<svg width="22" height="22" viewBox="0 0 22 22" fill="none" xmlns="http://www.w3.org/2000/svg">
<path d="M14.1999 21.2501H8.19985C6.87985 21.2501 5.77985 21.1248 4.84985 20.855C4.50985 20.7586 4.28985 20.4405 4.30985 20.1031C4.55985 17.2212 7.58985 14.9561 11.1999 14.9561C14.8099 14.9561 17.8299 17.2116 18.0899 20.1031C18.1199 20.4501 17.8999 20.7586 17.5499 20.855C16.6199 21.1248 15.5199 21.2501 14.1999 21.2501ZM5.91985 19.6212C6.57985 19.7465 7.32985 19.8043 8.19985 19.8043H14.1999C15.0699 19.8043 15.8199 19.7465 16.4799 19.6212C15.9499 17.7706 13.7599 16.4019 11.1999 16.4019C8.63985 16.4019 6.44985 17.7706 5.91985 19.6212Z" fill="#24221E"/>
<path d="M14.1997 1.25012H8.19971C3.19971 1.25012 1.19971 3.17783 1.19971 7.99711V13.7802C1.19971 17.4236 2.33971 19.4188 5.05971 20.161C5.27971 17.6549 7.94971 15.679 11.1997 15.679C14.4497 15.679 17.1197 17.6549 17.3397 20.161C20.0597 19.4188 21.1997 17.4236 21.1997 13.7802V7.99711C21.1997 3.17783 19.1997 1.25012 14.1997 1.25012ZM11.1997 12.9802C9.21971 12.9802 7.61971 11.4285 7.61971 9.52002C7.61971 7.61158 9.21971 6.0694 11.1997 6.0694C13.1797 6.0694 14.7797 7.61158 14.7797 9.52002C14.7797 11.4285 13.1797 12.9802 11.1997 12.9802Z" stroke="#24221E" stroke-width="1.5" stroke-linecap="round" stroke-linejoin="round"/>
<path d="M11.1996 13.7031C8.80963 13.7031 6.86963 11.8236 6.86963 9.52001C6.86963 7.21639 8.80963 5.3465 11.1996 5.3465C13.5896 5.3465 15.5296 7.21639 15.5296 9.52001C15.5296 11.8236 13.5896 13.7031 11.1996 13.7031ZM11.1996 6.79228C9.63963 6.79228 8.36963 8.01639 8.36963 9.52001C8.36963 11.0333 9.63963 12.2573 11.1996 12.2573C12.7596 12.2573 14.0296 11.0333 14.0296 9.52001C14.0296 8.01639 12.7596 6.79228 11.1996 6.79228Z" fill="#24221E"/>
</svg>
