<svg width="21" height="21" viewBox="0 0 21 21" fill="none" xmlns="http://www.w3.org/2000/svg">
<path d="M13.1737 20.2461C12.9785 20.2461 12.7833 20.2167 12.5882 20.1676C12.012 20.0008 11.5287 19.6181 11.222 19.0784L11.1105 18.8822C10.5622 17.8813 9.80937 17.8813 9.26105 18.8822L9.15882 19.0686C8.85212 19.6181 8.36885 20.0106 7.79264 20.1676C7.20714 20.3344 6.60305 20.2461 6.0919 19.9223L4.49339 18.9509C3.92647 18.6074 3.51755 18.0481 3.34097 17.371C3.17368 16.6939 3.25733 15.9972 3.58261 15.3987C3.85212 14.8982 3.92647 14.4468 3.76848 14.1623C3.61049 13.8777 3.21086 13.7109 2.66253 13.7109C1.30566 13.7109 0.199707 12.5432 0.199707 11.1105V9.38352C0.199707 7.95088 1.30566 6.78317 2.66253 6.78317C3.21086 6.78317 3.61049 6.61636 3.76848 6.33179C3.92647 6.04722 3.86142 5.59584 3.58261 5.0954C3.25733 4.49683 3.17368 3.79031 3.34097 3.12305C3.50826 2.44598 3.91718 1.88666 4.49339 1.54322L6.10119 0.571767C7.15138 -0.0856799 8.53614 0.297013 9.16811 1.42547L9.27963 1.62172C9.82796 2.62261 10.5807 2.62261 11.1291 1.62172L11.2313 1.43528C11.8633 0.297013 13.248 -0.0856799 14.3075 0.58158L15.906 1.55303C16.4729 1.89647 16.8819 2.4558 17.0584 3.13287C17.2257 3.80994 17.1421 4.50664 16.8168 5.10521C16.5473 5.60565 16.4729 6.05704 16.6309 6.3416C16.7889 6.62617 17.1886 6.79298 17.7369 6.79298C19.0938 6.79298 20.1997 7.96069 20.1997 9.39333V11.1204C20.1997 12.553 19.0938 13.7207 17.7369 13.7207C17.1886 13.7207 16.7889 13.8875 16.6309 14.1721C16.4729 14.4567 16.538 14.908 16.8168 15.4085C17.1421 16.0071 17.235 16.7136 17.0584 17.3808C16.8912 18.0579 16.4822 18.6172 15.906 18.9607L14.2982 19.9321C13.9451 20.1382 13.564 20.2461 13.1737 20.2461ZM10.1904 16.6154C11.0176 16.6154 11.7889 17.1649 12.3187 18.1364L12.4209 18.3228C12.5324 18.5289 12.7183 18.6761 12.9413 18.735C13.1644 18.7938 13.3874 18.7644 13.5733 18.6467L15.1811 17.6654C15.4228 17.5182 15.6086 17.2729 15.683 16.9785C15.7573 16.6841 15.7202 16.3799 15.5807 16.1248C15.051 15.1632 14.986 14.1721 15.3949 13.4165C15.8038 12.6609 16.6495 12.2292 17.709 12.2292C18.3038 12.2292 18.7778 11.7287 18.7778 11.1007V9.37371C18.7778 8.75551 18.3038 8.24525 17.709 8.24525C16.6495 8.24525 15.8038 7.8135 15.3949 7.05793C14.986 6.30235 15.051 5.31127 15.5807 4.34964C15.7202 4.09451 15.7573 3.79031 15.683 3.49594C15.6086 3.20156 15.432 2.96605 15.1904 2.80905L13.5826 1.8376C13.183 1.58247 12.6532 1.72966 12.4116 2.16142L12.3094 2.34786C11.7796 3.31931 11.0083 3.86882 10.1811 3.86882C9.35398 3.86882 8.58261 3.31931 8.05287 2.34786L7.95064 2.1516C7.71829 1.73947 7.19785 1.59228 6.79822 1.8376L5.19041 2.81886C4.94878 2.96605 4.7629 3.21137 4.68855 3.50575C4.6142 3.80013 4.65138 4.10432 4.79079 4.35945C5.32052 5.32109 5.38558 6.31216 4.97666 7.06774C4.56774 7.82331 3.72201 8.25507 2.66253 8.25507C2.06774 8.25507 1.59376 8.75551 1.59376 9.38352V11.1105C1.59376 11.7287 2.06774 12.239 2.66253 12.239C3.72201 12.239 4.56774 12.6708 4.97666 13.4263C5.38558 14.1819 5.32052 15.173 4.79079 16.1346C4.65138 16.3897 4.6142 16.6939 4.68855 16.9883C4.7629 17.2827 4.93948 17.5182 5.18112 17.6752L6.78893 18.6467C6.98409 18.7742 7.21644 18.8037 7.43019 18.7448C7.65324 18.6859 7.83911 18.5289 7.95993 18.3228L8.06216 18.1364C8.5919 17.1748 9.36328 16.6154 10.1904 16.6154Z" fill="#24221E"/>
<path d="M10.1905 13.9267C8.26666 13.9267 6.70532 12.2782 6.70532 10.247C6.70532 8.21579 8.26666 6.56726 10.1905 6.56726C12.1142 6.56726 13.6756 8.21579 13.6756 10.247C13.6756 12.2782 12.1142 13.9267 10.1905 13.9267ZM10.1905 8.03916C9.03804 8.03916 8.09937 9.03024 8.09937 10.247C8.09937 11.4638 9.03804 12.4548 10.1905 12.4548C11.3429 12.4548 12.2815 11.4638 12.2815 10.247C12.2815 9.03024 11.3429 8.03916 10.1905 8.03916Z" fill="#24221E"/>
</svg>
