<svg width="25" height="24" viewBox="0 0 25 24" fill="none" xmlns="http://www.w3.org/2000/svg">
<g clip-path="url(#clip0_65_3248)">
<path d="M21.3095 5.35999L21.8398 5.89024L23.3398 4.39024C23.4101 4.31991 23.4495 4.22455 23.4495 4.12511C23.4495 4.02567 23.4101 3.93031 23.3398 3.85999L21.8398 2.35999L21.3095 2.89024L22.1694 3.75011H17.8246V4.50011H22.1694L21.3095 5.35999ZM19.0595 8.89024L19.5898 8.35998L18.7299 7.50011H23.0746V6.75011H18.7299L19.5898 5.89024L19.0595 5.35999L17.5595 6.85998C17.4892 6.93031 17.4497 7.02567 17.4497 7.12511C17.4497 7.22455 17.4892 7.31991 17.5595 7.39024L19.0595 8.89024Z" fill="#24221E"/>
<path d="M23.011 11.6889C22.7451 11.4222 22.3883 11.2659 22.012 11.2513C21.6358 11.2367 21.2679 11.3648 20.9822 11.6101C20.8511 11.3864 20.6637 11.2009 20.4387 11.072C20.2138 10.9431 19.959 10.8752 19.6997 10.8751C19.532 10.8728 19.3653 10.902 19.2085 10.9614C19.0346 11.0228 18.8742 11.117 18.736 11.2389C18.604 11.0148 18.416 10.8289 18.1905 10.6994C17.965 10.5699 17.7097 10.5012 17.4497 10.5001C17.1858 10.5009 16.9269 10.5721 16.6997 10.7064V4.50012C16.6997 4.1023 16.5417 3.72077 16.2604 3.43946C15.9791 3.15816 15.5975 3.00012 15.1997 3.00012C14.9358 3.00089 14.6769 3.07209 14.4497 3.20637V1.87512C14.4488 1.57703 14.33 1.2914 14.1192 1.08061C13.9084 0.869825 13.6228 0.751012 13.3247 0.750122H4.32471C4.02661 0.751012 3.74098 0.869825 3.5302 1.08061C3.31941 1.2914 3.2006 1.57703 3.19971 1.87512V9.37512H2.82471C2.32743 9.37512 1.85051 9.57267 1.49888 9.9243C1.14725 10.2759 0.949707 10.7528 0.949707 11.2501V12.7839L1.69971 20.6439V22.8751C1.69971 22.9746 1.73922 23.07 1.80954 23.1403C1.87987 23.2106 1.97525 23.2501 2.07471 23.2501H10.3247C10.4242 23.2501 10.5195 23.2106 10.5899 23.1403C10.6602 23.07 10.6997 22.9746 10.6997 22.8751V20.7451L12.0947 18.7501H12.901L13.3247 19.9389V22.8751C13.3247 22.9746 13.3642 23.07 13.4345 23.1403C13.5049 23.2106 13.6003 23.2501 13.6997 23.2501H21.1997C21.2992 23.2501 21.3945 23.2106 21.4649 23.1403C21.5352 23.07 21.5747 22.9746 21.5747 22.8751V19.9389L23.296 15.1164C23.3973 14.8336 23.4493 14.5355 23.4497 14.2351V12.7501C23.4499 12.5531 23.4112 12.3579 23.3359 12.1758C23.2606 11.9938 23.1502 11.8283 23.011 11.6889ZM9.94971 22.5001H2.44971V21.0001H9.94971V22.5001ZM10.1297 20.2501H2.41596L1.69971 12.7501V11.2501C1.7006 10.952 1.81941 10.6664 2.0302 10.4556C2.24098 10.2448 2.52661 10.126 2.82471 10.1251H5.44971C5.74808 10.1251 6.03422 10.2436 6.2452 10.4546C6.45618 10.6656 6.57471 10.9518 6.57471 11.2501C6.57471 11.5485 6.45618 11.8346 6.2452 12.0456C6.03422 12.2566 5.74808 12.3751 5.44971 12.3751H3.57471C3.47525 12.3751 3.37987 12.4146 3.30954 12.485C3.23922 12.5553 3.19971 12.6507 3.19971 12.7501V17.6251C3.2006 17.9232 3.31941 18.2088 3.5302 18.4196C3.74098 18.6304 4.02661 18.7492 4.32471 18.7501H11.1797L10.1297 20.2501ZM4.32471 18.0001C4.22525 18.0001 4.12987 17.9606 4.05954 17.8903C3.98922 17.82 3.94971 17.7246 3.94971 17.6251V16.5001H10.6997V15.7501H3.94971V13.1251H5.44971C5.94699 13.1251 6.4239 12.9276 6.77553 12.5759C7.12716 12.2243 7.32471 11.7474 7.32471 11.2501C7.32471 10.7528 7.12716 10.2759 6.77553 9.9243C6.4239 9.57267 5.94699 9.37512 5.44971 9.37512H3.94971V1.87512C3.94971 1.77567 3.98922 1.68028 4.05954 1.60996C4.12987 1.53963 4.22525 1.50012 4.32471 1.50012H13.3247C13.4242 1.50012 13.5195 1.53963 13.5899 1.60996C13.6602 1.68028 13.6997 1.77567 13.6997 1.87512V9.58512C13.472 9.44843 13.2115 9.37587 12.946 9.37512C12.5494 9.37611 12.1694 9.53407 11.889 9.81446C11.6087 10.0948 11.4507 10.4748 11.4497 10.8714V14.2351C11.4505 14.5367 11.5025 14.836 11.6035 15.1201L12.631 18.0001H4.32471ZM15.1997 22.5001H14.0747V20.2501H15.1997V22.5001ZM17.0747 22.5001H15.9497V20.2501H17.0747V22.5001ZM18.9497 22.5001H17.8247V20.2501H18.9497V22.5001ZM20.8247 22.5001H19.6997V20.2501H20.8247V22.5001ZM22.6997 14.2351C22.6993 14.4498 22.6625 14.6628 22.591 14.8651L20.9372 19.5001H13.9622L12.3085 14.8689C12.2372 14.6651 12.2005 14.4509 12.1997 14.2351V10.8714C12.2 10.7729 12.2196 10.6754 12.2575 10.5845C12.2954 10.4936 12.3509 10.4111 12.4207 10.3416C12.4905 10.2721 12.5733 10.2171 12.6644 10.1796C12.7555 10.1422 12.8531 10.123 12.9516 10.1232C13.0501 10.1235 13.1476 10.1431 13.2385 10.1811C13.3294 10.219 13.4119 10.2744 13.4814 10.3442C13.5508 10.4141 13.6059 10.4969 13.6433 10.588C13.6808 10.6791 13.7 10.7766 13.6997 10.8751V13.8751H14.4497V4.50012C14.4512 4.30166 14.5307 4.11175 14.671 3.97142C14.8113 3.83108 15.0012 3.75159 15.1997 3.75012C15.3984 3.75072 15.5889 3.82992 15.7294 3.97045C15.8699 4.11097 15.9491 4.30139 15.9497 4.50012V13.8751H16.6997V12.0001C16.7012 11.8017 16.7807 11.6118 16.921 11.4714C17.0613 11.3311 17.2512 11.2516 17.4497 11.2501C17.6484 11.2507 17.8389 11.3299 17.9794 11.4704C18.1199 11.611 18.1991 11.8014 18.1997 12.0001V13.8751H18.9497V12.3751C18.9498 12.2767 18.9694 12.1793 19.0073 12.0886C19.0453 11.9978 19.1009 11.9155 19.171 11.8464C19.2503 11.7627 19.3497 11.7007 19.4597 11.6664C19.5367 11.6387 19.6179 11.6248 19.6997 11.6251C19.8984 11.6257 20.0889 11.7049 20.2294 11.8454C20.3699 11.986 20.4491 12.1764 20.4497 12.3751V14.2501H21.1997V12.7501C21.2003 12.5514 21.2795 12.361 21.42 12.2204C21.5606 12.0799 21.751 12.0007 21.9497 12.0001C22.1482 12.0016 22.3381 12.0811 22.4784 12.2214C22.6187 12.3618 22.6982 12.5517 22.6997 12.7501V14.2351Z" fill="#24221E"/>
<path d="M8.82471 2.25012C8.08303 2.25012 7.358 2.47006 6.74132 2.88211C6.12464 3.29417 5.64399 3.87984 5.36016 4.56506C5.07633 5.25028 5.00207 6.00428 5.14676 6.73171C5.29146 7.45914 5.64861 8.12733 6.17306 8.65177C6.69751 9.17622 7.36569 9.53337 8.09312 9.67807C8.82055 9.82276 9.57455 9.7485 10.2598 9.46467C10.945 9.18084 11.5307 8.70019 11.9427 8.08351C12.3548 7.46683 12.5747 6.7418 12.5747 6.00012C12.5731 5.00605 12.1775 4.05314 11.4746 3.35022C10.7717 2.64731 9.81878 2.25171 8.82471 2.25012ZM8.82471 9.00012C8.23136 9.00012 7.65135 8.82417 7.158 8.49453C6.66465 8.16489 6.28013 7.69635 6.05307 7.14817C5.82601 6.59999 5.7666 5.99679 5.88235 5.41485C5.99811 4.83291 6.28383 4.29836 6.70339 3.8788C7.12295 3.45924 7.6575 3.17352 8.23944 3.05777C8.82138 2.94201 9.42458 3.00142 9.97276 3.22848C10.5209 3.45555 10.9895 3.84006 11.3191 4.33341C11.6488 4.82676 11.8247 5.40678 11.8247 6.00012C11.8236 6.79544 11.5072 7.55786 10.9448 8.12024C10.3825 8.68261 9.62002 8.99903 8.82471 9.00012Z" fill="#24221E"/>
<path d="M9.94971 6.75012C9.94851 6.9821 9.87587 7.20807 9.74167 7.39729C9.60748 7.58651 9.41824 7.72979 9.19971 7.80762V8.25012H8.44971V7.80762C8.23118 7.72979 8.04194 7.58651 7.90774 7.39729C7.77354 7.20807 7.7009 6.9821 7.69971 6.75012H8.44971C8.44971 6.82429 8.4717 6.89679 8.51291 6.95846C8.55411 7.02013 8.61268 7.06819 8.6812 7.09658C8.74972 7.12496 8.82512 7.13239 8.89787 7.11792C8.97061 7.10345 9.03743 7.06773 9.08987 7.01529C9.14232 6.96284 9.17803 6.89602 9.1925 6.82328C9.20697 6.75054 9.19954 6.67514 9.17116 6.60662C9.14278 6.53809 9.09471 6.47953 9.03305 6.43832C8.97138 6.39711 8.89887 6.37512 8.82471 6.37512C8.56088 6.37308 8.30616 6.27837 8.10508 6.10755C7.90401 5.93674 7.76936 5.70069 7.72468 5.44066C7.68 5.18064 7.72814 4.91318 7.86067 4.68505C7.9932 4.45691 8.20169 4.28261 8.44971 4.19262V3.75012H9.19971V4.19262C9.41824 4.27046 9.60748 4.41374 9.74167 4.60296C9.87587 4.79218 9.94851 5.01815 9.94971 5.25012H9.19971C9.19971 5.17595 9.17771 5.10345 9.13651 5.04178C9.0953 4.98011 9.03674 4.93205 8.96821 4.90367C8.89969 4.87528 8.82429 4.86786 8.75155 4.88233C8.6788 4.8968 8.61199 4.93251 8.55954 4.98496C8.5071 5.0374 8.47138 5.10422 8.45691 5.17696C8.44244 5.24971 8.44987 5.32511 8.47825 5.39363C8.50664 5.46215 8.5547 5.52072 8.61637 5.56192C8.67804 5.60313 8.75054 5.62512 8.82471 5.62512C9.1228 5.62601 9.40843 5.74482 9.61922 5.95561C9.83 6.1664 9.94882 6.45203 9.94971 6.75012Z" fill="#24221E"/>
</g>
<defs>
<clipPath id="clip0_65_3248">
<rect width="24" height="24" fill="white" transform="translate(0.199707 0.00012207)"/>
</clipPath>
</defs>
</svg>
