<svg width="25" height="25" viewBox="0 0 25 25" fill="none" xmlns="http://www.w3.org/2000/svg">
<path d="M10.7074 6.25007C10.7074 5.97864 10.6127 5.71459 10.4376 5.49782C10.2625 5.28104 10.0166 5.12333 9.73693 5.0485C9.45727 4.97367 9.1591 4.9858 8.88748 5.08305C8.61587 5.18031 8.38556 5.3574 8.23137 5.58757L4.63121 8.94632C4.50324 9.06162 4.40116 9.19956 4.33095 9.35206C4.26073 9.50457 4.22376 9.66859 4.22222 9.83456C4.22067 10.0005 4.25457 10.1651 4.32194 10.3188C4.38931 10.4724 4.4888 10.6119 4.6146 10.7293C4.7404 10.8467 4.89 10.9395 5.05466 11.0023C5.21932 11.0652 5.39575 11.0968 5.57365 11.0954C5.75156 11.0939 5.92737 11.0595 6.09084 10.9939C6.2543 10.9284 6.40215 10.8332 6.52575 10.7138L8.02771 9.31382V18.7501C8.02771 19.0816 8.16887 19.3995 8.42014 19.634C8.67141 19.8684 9.0122 20.0001 9.36755 20.0001C9.7229 20.0001 10.0637 19.8684 10.315 19.634C10.5662 19.3995 10.7074 19.0816 10.7074 18.7501V6.31257V6.25007Z" fill="#24221E"/>
<path d="M13.7075 18.7501C13.7075 19.0215 13.8022 19.2855 13.9773 19.5023C14.1524 19.7191 14.3983 19.8768 14.678 19.9516C14.9576 20.0265 15.2558 20.0143 15.5274 19.9171C15.7991 19.8198 16.0294 19.6427 16.1836 19.4126L19.7851 16.0538C19.9094 15.9377 20.0081 15.7998 20.0754 15.6481C20.1427 15.4964 20.1773 15.3338 20.1772 15.1696C20.1772 15.0054 20.1424 14.8429 20.075 14.6912C20.0076 14.5395 19.9089 14.4017 19.7844 14.2857C19.6599 14.1696 19.5121 14.0776 19.3495 14.0148C19.1869 13.952 19.0126 13.9197 18.8366 13.9198C18.6607 13.9199 18.4864 13.9523 18.3238 14.0151C18.1613 14.078 18.0136 14.1702 17.8892 14.2863L16.3885 15.6863V6.25006C16.3885 5.91854 16.2474 5.6006 15.9961 5.36618C15.7448 5.13176 15.4041 5.00006 15.0487 5.00006C14.6934 5.00006 14.3526 5.13176 14.1013 5.36618C13.85 5.6006 13.7089 5.91854 13.7089 6.25006V18.6876V18.7501H13.7075Z" fill="#24221E"/>
</svg>
