<svg width="25" height="25" viewBox="0 0 25 25" fill="none" xmlns="http://www.w3.org/2000/svg">
<path d="M12.3593 12.37C12.3293 12.37 12.3093 12.37 12.2793 12.37C12.2293 12.36 12.1593 12.36 12.0993 12.37C9.19928 12.28 7.00928 10 7.00928 7.19003C7.00928 4.33003 9.33928 2.00003 12.1993 2.00003C15.0593 2.00003 17.3893 4.33003 17.3893 7.19003C17.3793 10 15.1793 12.28 12.3893 12.37C12.3793 12.37 12.3693 12.37 12.3593 12.37ZM12.1993 3.50003C10.1693 3.50003 8.50928 5.16003 8.50928 7.19003C8.50928 9.19003 10.0693 10.8 12.0593 10.87C12.1093 10.86 12.2493 10.86 12.3793 10.87C14.3393 10.78 15.8793 9.17003 15.8893 7.19003C15.8893 5.16003 14.2293 3.50003 12.1993 3.50003Z" fill="#24221E"/>
<path d="M12.3693 23.3C10.4093 23.3 8.43932 22.8 6.94932 21.8C5.55932 20.88 4.79932 19.62 4.79932 18.25C4.79932 16.88 5.55932 15.61 6.94932 14.68C9.94932 12.69 14.8093 12.69 17.7893 14.68C19.1693 15.6 19.9393 16.86 19.9393 18.23C19.9393 19.6 19.1793 20.87 17.7893 21.8C16.2893 22.8 14.3293 23.3 12.3693 23.3ZM7.77932 15.94C6.81932 16.58 6.29932 17.4 6.29932 18.26C6.29932 19.11 6.82932 19.93 7.77932 20.56C10.2693 22.23 14.4693 22.23 16.9593 20.56C17.9193 19.92 18.4393 19.1 18.4393 18.24C18.4393 17.39 17.9093 16.57 16.9593 15.94C14.4693 14.28 10.2693 14.28 7.77932 15.94Z" fill="#24221E"/>
</svg>
