<svg width="25" height="24" viewBox="0 0 25 24" fill="none" xmlns="http://www.w3.org/2000/svg">
<path fill-rule="evenodd" clip-rule="evenodd" d="M14.1997 7C13.9345 7 13.6801 7.10536 13.4926 7.29289C13.3051 7.48043 13.1997 7.73478 13.1997 8V16C13.1997 16.2652 13.3051 16.5196 13.4926 16.7071C13.6801 16.8946 13.9345 17 14.1997 17H18.1997C18.4649 17 18.7193 16.8946 18.9068 16.7071C19.0944 16.5196 19.1997 16.2652 19.1997 16V8C19.1997 7.73478 19.0944 7.48043 18.9068 7.29289C18.7193 7.10536 18.4649 7 18.1997 7H14.1997ZM17.1997 9H15.1997V15H17.1997V9Z" fill="#24221E"/>
<path d="M6.19971 7C5.93449 7 5.68014 7.10536 5.4926 7.29289C5.30506 7.48043 5.19971 7.73478 5.19971 8C5.19971 8.26522 5.30506 8.51957 5.4926 8.70711C5.68014 8.89464 5.93449 9 6.19971 9H10.1997C10.4649 9 10.7193 8.89464 10.9068 8.70711C11.0943 8.51957 11.1997 8.26522 11.1997 8C11.1997 7.73478 11.0943 7.48043 10.9068 7.29289C10.7193 7.10536 10.4649 7 10.1997 7H6.19971ZM6.19971 11C5.93449 11 5.68014 11.1054 5.4926 11.2929C5.30506 11.4804 5.19971 11.7348 5.19971 12C5.19971 12.2652 5.30506 12.5196 5.4926 12.7071C5.68014 12.8946 5.93449 13 6.19971 13H10.1997C10.4649 13 10.7193 12.8946 10.9068 12.7071C11.0943 12.5196 11.1997 12.2652 11.1997 12C11.1997 11.7348 11.0943 11.4804 10.9068 11.2929C10.7193 11.1054 10.4649 11 10.1997 11H6.19971ZM5.19971 16C5.19971 15.7348 5.30506 15.4804 5.4926 15.2929C5.68014 15.1054 5.93449 15 6.19971 15H10.1997C10.4649 15 10.7193 15.1054 10.9068 15.2929C11.0943 15.4804 11.1997 15.7348 11.1997 16C11.1997 16.2652 11.0943 16.5196 10.9068 16.7071C10.7193 16.8946 10.4649 17 10.1997 17H6.19971C5.93449 17 5.68014 16.8946 5.4926 16.7071C5.30506 16.5196 5.19971 16.2652 5.19971 16Z" fill="#24221E"/>
<path fill-rule="evenodd" clip-rule="evenodd" d="M4.19971 3C3.40406 3 2.641 3.31607 2.07839 3.87868C1.51578 4.44129 1.19971 5.20435 1.19971 6V18C1.19971 18.7956 1.51578 19.5587 2.07839 20.1213C2.641 20.6839 3.40406 21 4.19971 21H20.1997C20.9954 21 21.7584 20.6839 22.321 20.1213C22.8836 19.5587 23.1997 18.7956 23.1997 18V6C23.1997 5.20435 22.8836 4.44129 22.321 3.87868C21.7584 3.31607 20.9954 3 20.1997 3H4.19971ZM20.1997 5H4.19971C3.93449 5 3.68014 5.10536 3.4926 5.29289C3.30506 5.48043 3.19971 5.73478 3.19971 6V18C3.19971 18.2652 3.30506 18.5196 3.4926 18.7071C3.68014 18.8946 3.93449 19 4.19971 19H20.1997C20.4649 19 20.7193 18.8946 20.9068 18.7071C21.0944 18.5196 21.1997 18.2652 21.1997 18V6C21.1997 5.73478 21.0944 5.48043 20.9068 5.29289C20.7193 5.10536 20.4649 5 20.1997 5Z" fill="#24221E"/>
</svg>
